<?xml version="1.0" encoding="utf-8"?>
<!-- Generator: Adobe Illustrator 27.0.1, SVG Export Plug-In . SVG Version: 6.00 Build 0)  -->
<svg version="1.1" id="Ñëîé_1" xmlns="http://www.w3.org/2000/svg" xmlns:xlink="http://www.w3.org/1999/xlink" x="0px" y="0px"
	 viewBox="0 0 2720 1530" style="enable-background:new 0 0 2720 1530;" xml:space="preserve">
<style type="text/css">
	.st0{fill:#B3B3B3;}
	.st1{display:none;fill:#B3DAFF;}
	.st2{fill:url(#SVGID_1_);}
	.st3{fill:url(#SVGID_00000001653502898590281910000013641680381233030049_);}
	.st4{fill:url(#SVGID_00000015338986290720401660000015092954523999721095_);}
	.st5{fill:#0A121A;}
	.st6{fill:url(#SVGID_00000087396345777905372790000017928088585108840371_);}
	.st7{fill:url(#SVGID_00000182520926244197783480000017396876822192674751_);}
	.st8{fill:url(#SVGID_00000102541981211589911890000014733753368178209171_);}
	.st9{fill:url(#SVGID_00000022528882651198126330000003993541285663476919_);}
	.st10{fill:url(#SVGID_00000118399113665731467590000005521860849892235452_);}
	.st11{fill:#00070D;}
	.st12{fill:url(#SVGID_00000078042900196396244470000008947228224366087070_);}
	.st13{fill:#4C6080;}
	.st14{fill:#2E3A4D;}
	.st15{fill:#12161A;}
	.st16{fill:url(#SVGID_00000168112268544212698240000013107561047666479505_);}
	.st17{fill:url(#SVGID_00000183235470908596773580000006850596297402762938_);}
	.st18{fill:url(#SVGID_00000030481368452065762540000015525518783249723045_);}
	.st19{fill:url(#SVGID_00000163771639686081937600000011186118584685834153_);}
	.st20{fill:url(#SVGID_00000119812054776114380430000007038707679416040612_);}
	.st21{fill:url(#SVGID_00000101812286181272796940000013148473740922024359_);}
	.st22{fill:#082F4D;}
	.st23{fill:#97BFFF;}
	.st24{fill:#E6F3FF;}
</style>
<g>
	<g>
		<path class="st0" d="M423.73,1364.02v17.63c0,5.7-1.92,9.66-8.19,9.66c-5.79,0-7.85-3.89-7.85-9.59v-17.37
			c0-6.43,2.87-9.65,8.13-9.65C420.96,1354.7,423.73,1357.84,423.73,1364.02z M412.54,1363.81v18.4c0,3.04,0.93,4.6,3.18,4.6
			c2.14,0,3.1-1.44,3.1-4.75v-18.35c0-3.04-1.03-4.51-3.12-4.51C413.67,1359.2,412.54,1360.48,412.54,1363.81z"/>
		<path class="st0" d="M446.15,1364.02v17.63c0,5.7-1.92,9.66-8.19,9.66c-5.79,0-7.85-3.89-7.85-9.59v-17.37
			c0-6.43,2.87-9.65,8.13-9.65C443.39,1354.7,446.15,1357.84,446.15,1364.02z M434.97,1363.81v18.4c0,3.04,0.93,4.6,3.18,4.6
			c2.14,0,3.1-1.44,3.1-4.75v-18.35c0-3.04-1.03-4.51-3.12-4.51C436.1,1359.2,434.97,1360.48,434.97,1363.81z"/>
		<path class="st0" d="M468.58,1364.02v17.63c0,5.7-1.92,9.66-8.19,9.66c-5.79,0-7.85-3.89-7.85-9.59v-17.37
			c0-6.43,2.87-9.65,8.13-9.65C465.82,1354.7,468.58,1357.84,468.58,1364.02z M457.4,1363.81v18.4c0,3.04,0.93,4.6,3.18,4.6
			c2.14,0,3.1-1.44,3.1-4.75v-18.35c0-3.04-1.03-4.51-3.12-4.51C458.53,1359.2,457.4,1360.48,457.4,1363.81z"/>
		<path class="st0" d="M491.01,1364.02v17.63c0,5.7-1.92,9.66-8.19,9.66c-5.79,0-7.85-3.89-7.85-9.59v-17.37
			c0-6.43,2.87-9.65,8.13-9.65C488.24,1354.7,491.01,1357.84,491.01,1364.02z M479.83,1363.81v18.4c0,3.04,0.93,4.6,3.18,4.6
			c2.14,0,3.1-1.44,3.1-4.75v-18.35c0-3.04-1.03-4.51-3.12-4.51C480.96,1359.2,479.83,1360.48,479.83,1363.81z"/>
		<path class="st0" d="M513.44,1364.02v17.63c0,5.7-1.92,9.66-8.19,9.66c-5.79,0-7.85-3.89-7.85-9.59v-17.37
			c0-6.43,2.87-9.65,8.13-9.65C510.67,1354.7,513.44,1357.84,513.44,1364.02z M502.25,1363.81v18.4c0,3.04,0.93,4.6,3.18,4.6
			c2.14,0,3.1-1.44,3.1-4.75v-18.35c0-3.04-1.03-4.51-3.12-4.51C503.39,1359.2,502.25,1360.48,502.25,1363.81z"/>
		<path class="st0" d="M535.86,1364.02v17.63c0,5.7-1.92,9.66-8.19,9.66c-5.79,0-7.85-3.89-7.85-9.59v-17.37
			c0-6.43,2.87-9.65,8.13-9.65C533.1,1354.7,535.86,1357.84,535.86,1364.02z M524.68,1363.81v18.4c0,3.04,0.93,4.6,3.18,4.6
			c2.14,0,3.1-1.44,3.1-4.75v-18.35c0-3.04-1.03-4.51-3.12-4.51C525.81,1359.2,524.68,1360.48,524.68,1363.81z"/>
		<path class="st0" d="M544.86,1390.87v-30.03c-0.99,0.27-2.96,0.52-3.83,0.55v-3.78c2.2-0.3,4.18-1.52,5.16-2.67h3.59v35.93H544.86
			z"/>
		<path class="st0" d="M573.7,1364.02v17.63c0,5.7-1.92,9.66-8.19,9.66c-5.79,0-7.85-3.89-7.85-9.59v-17.37
			c0-6.43,2.87-9.65,8.13-9.65C570.93,1354.7,573.7,1357.84,573.7,1364.02z M562.52,1363.81v18.4c0,3.04,0.93,4.6,3.18,4.6
			c2.14,0,3.1-1.44,3.1-4.75v-18.35c0-3.04-1.03-4.51-3.12-4.51C563.65,1359.2,562.52,1360.48,562.52,1363.81z"/>
		<path class="st0" d="M596.13,1364.02v17.63c0,5.7-1.92,9.66-8.19,9.66c-5.79,0-7.85-3.89-7.85-9.59v-17.37
			c0-6.43,2.87-9.65,8.13-9.65C593.36,1354.7,596.13,1357.84,596.13,1364.02z M584.94,1363.81v18.4c0,3.04,0.93,4.6,3.18,4.6
			c2.14,0,3.1-1.44,3.1-4.75v-18.35c0-3.04-1.03-4.51-3.12-4.51C586.07,1359.2,584.94,1360.48,584.94,1363.81z"/>
		<path class="st0" d="M605.12,1390.87v-30.03c-0.99,0.27-2.96,0.52-3.82,0.55v-3.78c2.2-0.3,4.18-1.52,5.16-2.67h3.59v35.93H605.12
			z"/>
	</g>
	<g>
		<path class="st0" d="M554.89,835.15v17.63c0,5.7-1.92,9.66-8.19,9.66c-5.79,0-7.85-3.89-7.85-9.59v-17.37
			c0-6.43,2.87-9.65,8.13-9.65C552.13,825.82,554.89,828.97,554.89,835.15z M543.71,834.93v18.4c0,3.04,0.93,4.6,3.18,4.6
			c2.14,0,3.1-1.44,3.1-4.75v-18.35c0-3.04-1.03-4.51-3.12-4.51C544.84,830.32,543.71,831.61,543.71,834.93z"/>
		<path class="st0" d="M577.32,835.15v17.63c0,5.7-1.92,9.66-8.19,9.66c-5.79,0-7.85-3.89-7.85-9.59v-17.37
			c0-6.43,2.87-9.65,8.13-9.65C574.55,825.82,577.32,828.97,577.32,835.15z M566.14,834.93v18.4c0,3.04,0.93,4.6,3.18,4.6
			c2.14,0,3.1-1.44,3.1-4.75v-18.35c0-3.04-1.03-4.51-3.12-4.51C567.27,830.32,566.14,831.61,566.14,834.93z"/>
		<path class="st0" d="M599.75,835.15v17.63c0,5.7-1.92,9.66-8.19,9.66c-5.79,0-7.85-3.89-7.85-9.59v-17.37
			c0-6.43,2.87-9.65,8.13-9.65C596.98,825.82,599.75,828.97,599.75,835.15z M588.56,834.93v18.4c0,3.04,0.93,4.6,3.18,4.6
			c2.14,0,3.1-1.44,3.1-4.75v-18.35c0-3.04-1.03-4.51-3.12-4.51C589.7,830.32,588.56,831.61,588.56,834.93z"/>
		<path class="st0" d="M622.17,835.15v17.63c0,5.7-1.92,9.66-8.19,9.66c-5.79,0-7.85-3.89-7.85-9.59v-17.37
			c0-6.43,2.87-9.65,8.13-9.65C619.41,825.82,622.17,828.97,622.17,835.15z M610.99,834.93v18.4c0,3.04,0.93,4.6,3.18,4.6
			c2.14,0,3.1-1.44,3.1-4.75v-18.35c0-3.04-1.03-4.51-3.12-4.51C612.12,830.32,610.99,831.61,610.99,834.93z"/>
		<path class="st0" d="M631.17,862v-30.03c-0.99,0.27-2.96,0.52-3.83,0.55v-3.78c2.2-0.3,4.18-1.52,5.16-2.67h3.59V862H631.17z"/>
		<path class="st0" d="M660.01,835.15v17.63c0,5.7-1.92,9.66-8.19,9.66c-5.79,0-7.85-3.89-7.85-9.59v-17.37
			c0-6.43,2.87-9.65,8.13-9.65C657.24,825.82,660.01,828.97,660.01,835.15z M648.83,834.93v18.4c0,3.04,0.93,4.6,3.18,4.6
			c2.14,0,3.1-1.44,3.1-4.75v-18.35c0-3.04-1.03-4.51-3.12-4.51C649.96,830.32,648.83,831.61,648.83,834.93z"/>
		<path class="st0" d="M682.43,835.15v17.63c0,5.7-1.92,9.66-8.19,9.66c-5.79,0-7.85-3.89-7.85-9.59v-17.37
			c0-6.43,2.87-9.65,8.13-9.65C679.67,825.82,682.43,828.97,682.43,835.15z M671.25,834.93v18.4c0,3.04,0.93,4.6,3.18,4.6
			c2.14,0,3.1-1.44,3.1-4.75v-18.35c0-3.04-1.03-4.51-3.12-4.51C672.38,830.32,671.25,831.61,671.25,834.93z"/>
		<path class="st0" d="M704.86,835.15v17.63c0,5.7-1.92,9.66-8.19,9.66c-5.79,0-7.85-3.89-7.85-9.59v-17.37
			c0-6.43,2.87-9.65,8.13-9.65C702.1,825.82,704.86,828.97,704.86,835.15z M693.68,834.93v18.4c0,3.04,0.93,4.6,3.18,4.6
			c2.14,0,3.1-1.44,3.1-4.75v-18.35c0-3.04-1.03-4.51-3.12-4.51C694.81,830.32,693.68,831.61,693.68,834.93z"/>
		<path class="st0" d="M727.29,835.15v17.63c0,5.7-1.92,9.66-8.19,9.66c-5.79,0-7.85-3.89-7.85-9.59v-17.37
			c0-6.43,2.87-9.65,8.13-9.65C724.53,825.82,727.29,828.97,727.29,835.15z M716.11,834.93v18.4c0,3.04,0.93,4.6,3.18,4.6
			c2.14,0,3.1-1.44,3.1-4.75v-18.35c0-3.04-1.03-4.51-3.12-4.51C717.24,830.32,716.11,831.61,716.11,834.93z"/>
		<path class="st0" d="M736.28,862v-30.03c-0.99,0.27-2.96,0.52-3.83,0.55v-3.78c2.2-0.3,4.18-1.52,5.16-2.67h3.59V862H736.28z"/>
	</g>
	<g>
		<path class="st0" d="M601.99,1471.15v17.63c0,5.7-1.92,9.66-8.19,9.66c-5.79,0-7.85-3.89-7.85-9.59v-17.37
			c0-6.43,2.87-9.65,8.13-9.65C599.23,1461.82,601.99,1464.97,601.99,1471.15z M590.81,1470.93v18.4c0,3.04,0.93,4.6,3.18,4.6
			c2.14,0,3.1-1.44,3.1-4.75v-18.35c0-3.04-1.03-4.51-3.12-4.51C591.94,1466.32,590.81,1467.61,590.81,1470.93z"/>
		<path class="st0" d="M624.42,1471.15v17.63c0,5.7-1.92,9.66-8.19,9.66c-5.79,0-7.85-3.89-7.85-9.59v-17.37
			c0-6.43,2.87-9.65,8.13-9.65C621.66,1461.82,624.42,1464.97,624.42,1471.15z M613.24,1470.93v18.4c0,3.04,0.93,4.6,3.18,4.6
			c2.14,0,3.1-1.44,3.1-4.75v-18.35c0-3.04-1.03-4.51-3.12-4.51C614.37,1466.32,613.24,1467.61,613.24,1470.93z"/>
		<path class="st0" d="M646.85,1471.15v17.63c0,5.7-1.92,9.66-8.19,9.66c-5.79,0-7.85-3.89-7.85-9.59v-17.37
			c0-6.43,2.87-9.65,8.13-9.65C644.08,1461.82,646.85,1464.97,646.85,1471.15z M635.67,1470.93v18.4c0,3.04,0.93,4.6,3.18,4.6
			c2.14,0,3.1-1.44,3.1-4.75v-18.35c0-3.04-1.03-4.51-3.12-4.51C636.8,1466.32,635.67,1467.61,635.67,1470.93z"/>
		<path class="st0" d="M669.28,1471.15v17.63c0,5.7-1.92,9.66-8.19,9.66c-5.79,0-7.85-3.89-7.85-9.59v-17.37
			c0-6.43,2.87-9.65,8.13-9.65C666.51,1461.82,669.28,1464.97,669.28,1471.15z M658.09,1470.93v18.4c0,3.04,0.93,4.6,3.18,4.6
			c2.14,0,3.1-1.44,3.1-4.75v-18.35c0-3.04-1.03-4.51-3.12-4.51C659.23,1466.32,658.09,1467.61,658.09,1470.93z"/>
		<path class="st0" d="M691.7,1471.15v17.63c0,5.7-1.92,9.66-8.19,9.66c-5.79,0-7.85-3.89-7.85-9.59v-17.37
			c0-6.43,2.87-9.65,8.13-9.65C688.94,1461.82,691.7,1464.97,691.7,1471.15z M680.52,1470.93v18.4c0,3.04,0.93,4.6,3.18,4.6
			c2.14,0,3.1-1.44,3.1-4.75v-18.35c0-3.04-1.03-4.51-3.12-4.51C681.65,1466.32,680.52,1467.61,680.52,1470.93z"/>
		<path class="st0" d="M714.13,1471.15v17.63c0,5.7-1.92,9.66-8.19,9.66c-5.79,0-7.85-3.89-7.85-9.59v-17.37
			c0-6.43,2.87-9.65,8.13-9.65C711.37,1461.82,714.13,1464.97,714.13,1471.15z M702.95,1470.93v18.4c0,3.04,0.93,4.6,3.18,4.6
			c2.14,0,3.1-1.44,3.1-4.75v-18.35c0-3.04-1.03-4.51-3.12-4.51C704.08,1466.32,702.95,1467.61,702.95,1470.93z"/>
		<path class="st0" d="M736.56,1471.15v17.63c0,5.7-1.92,9.66-8.19,9.66c-5.79,0-7.85-3.89-7.85-9.59v-17.37
			c0-6.43,2.87-9.65,8.13-9.65C733.8,1461.82,736.56,1464.97,736.56,1471.15z M725.38,1470.93v18.4c0,3.04,0.93,4.6,3.18,4.6
			c2.14,0,3.1-1.44,3.1-4.75v-18.35c0-3.04-1.03-4.51-3.12-4.51C726.51,1466.32,725.38,1467.61,725.38,1470.93z"/>
		<path class="st0" d="M758.99,1471.15v17.63c0,5.7-1.92,9.66-8.19,9.66c-5.79,0-7.85-3.89-7.85-9.59v-17.37
			c0-6.43,2.87-9.65,8.13-9.65C756.22,1461.82,758.99,1464.97,758.99,1471.15z M747.81,1470.93v18.4c0,3.04,0.93,4.6,3.18,4.6
			c2.14,0,3.1-1.44,3.1-4.75v-18.35c0-3.04-1.03-4.51-3.12-4.51C748.94,1466.32,747.81,1467.61,747.81,1470.93z"/>
		<path class="st0" d="M767.98,1498v-30.03c-0.99,0.27-2.96,0.52-3.82,0.55v-3.78c2.2-0.3,4.18-1.52,5.16-2.67h3.59V1498H767.98z"/>
		<path class="st0" d="M782.67,1498v-30.03c-0.99,0.27-2.96,0.52-3.83,0.55v-3.78c2.2-0.3,4.18-1.52,5.16-2.67h3.59V1498H782.67z"/>
	</g>
	<g>
		<path class="st0" d="M687.06,1295.61v17.63c0,5.7-1.92,9.66-8.19,9.66c-5.79,0-7.85-3.89-7.85-9.59v-17.37
			c0-6.43,2.87-9.65,8.13-9.65C684.29,1286.29,687.06,1289.44,687.06,1295.61z M675.88,1295.4v18.4c0,3.04,0.93,4.6,3.18,4.6
			c2.14,0,3.1-1.44,3.1-4.75v-18.35c0-3.04-1.03-4.51-3.12-4.51C677.01,1290.79,675.88,1292.08,675.88,1295.4z"/>
		<path class="st0" d="M709.49,1295.61v17.63c0,5.7-1.92,9.66-8.19,9.66c-5.79,0-7.85-3.89-7.85-9.59v-17.37
			c0-6.43,2.87-9.65,8.13-9.65C706.72,1286.29,709.49,1289.44,709.49,1295.61z M698.3,1295.4v18.4c0,3.04,0.93,4.6,3.18,4.6
			c2.14,0,3.1-1.44,3.1-4.75v-18.35c0-3.04-1.03-4.51-3.12-4.51C699.44,1290.79,698.3,1292.08,698.3,1295.4z"/>
		<path class="st0" d="M731.91,1295.61v17.63c0,5.7-1.92,9.66-8.19,9.66c-5.79,0-7.85-3.89-7.85-9.59v-17.37
			c0-6.43,2.87-9.65,8.13-9.65C729.15,1286.29,731.91,1289.44,731.91,1295.61z M720.73,1295.4v18.4c0,3.04,0.93,4.6,3.18,4.6
			c2.14,0,3.1-1.44,3.1-4.75v-18.35c0-3.04-1.03-4.51-3.12-4.51C721.86,1290.79,720.73,1292.08,720.73,1295.4z"/>
		<path class="st0" d="M754.34,1295.61v17.63c0,5.7-1.92,9.66-8.19,9.66c-5.79,0-7.85-3.89-7.85-9.59v-17.37
			c0-6.43,2.87-9.65,8.13-9.65C751.58,1286.29,754.34,1289.44,754.34,1295.61z M743.16,1295.4v18.4c0,3.04,0.93,4.6,3.18,4.6
			c2.14,0,3.1-1.44,3.1-4.75v-18.35c0-3.04-1.03-4.51-3.12-4.51C744.29,1290.79,743.16,1292.08,743.16,1295.4z"/>
		<path class="st0" d="M776.77,1295.61v17.63c0,5.7-1.92,9.66-8.19,9.66c-5.79,0-7.85-3.89-7.85-9.59v-17.37
			c0-6.43,2.87-9.65,8.13-9.65C774.01,1286.29,776.77,1289.44,776.77,1295.61z M765.59,1295.4v18.4c0,3.04,0.93,4.6,3.18,4.6
			c2.14,0,3.1-1.44,3.1-4.75v-18.35c0-3.04-1.03-4.51-3.12-4.51C766.72,1290.79,765.59,1292.08,765.59,1295.4z"/>
		<path class="st0" d="M799.2,1295.61v17.63c0,5.7-1.92,9.66-8.19,9.66c-5.79,0-7.85-3.89-7.85-9.59v-17.37
			c0-6.43,2.87-9.65,8.13-9.65C796.43,1286.29,799.2,1289.44,799.2,1295.61z M788.02,1295.4v18.4c0,3.04,0.93,4.6,3.18,4.6
			c2.14,0,3.1-1.44,3.1-4.75v-18.35c0-3.04-1.03-4.51-3.12-4.51C789.15,1290.79,788.02,1292.08,788.02,1295.4z"/>
		<path class="st0" d="M821.63,1295.61v17.63c0,5.7-1.92,9.66-8.19,9.66c-5.79,0-7.85-3.89-7.85-9.59v-17.37
			c0-6.43,2.87-9.65,8.13-9.65C818.86,1286.29,821.63,1289.44,821.63,1295.61z M810.44,1295.4v18.4c0,3.04,0.93,4.6,3.18,4.6
			c2.14,0,3.1-1.44,3.1-4.75v-18.35c0-3.04-1.03-4.51-3.12-4.51C811.57,1290.79,810.44,1292.08,810.44,1295.4z"/>
		<path class="st0" d="M830.62,1322.46v-30.03c-0.99,0.27-2.96,0.52-3.83,0.55v-3.78c2.2-0.3,4.18-1.52,5.16-2.67h3.59v35.93H830.62
			z"/>
		<path class="st0" d="M859.46,1295.61v17.63c0,5.7-1.92,9.66-8.19,9.66c-5.79,0-7.85-3.89-7.85-9.59v-17.37
			c0-6.43,2.87-9.65,8.13-9.65C856.69,1286.29,859.46,1289.44,859.46,1295.61z M848.28,1295.4v18.4c0,3.04,0.93,4.6,3.18,4.6
			c2.14,0,3.1-1.44,3.1-4.75v-18.35c0-3.04-1.03-4.51-3.12-4.51C849.41,1290.79,848.28,1292.08,848.28,1295.4z"/>
		<path class="st0" d="M868.45,1322.46v-30.03c-0.99,0.27-2.96,0.52-3.83,0.55v-3.78c2.2-0.3,4.18-1.52,5.16-2.67h3.59v35.93H868.45
			z"/>
	</g>
	<g>
		<path class="st0" d="M840.06,1200.77v25.16c0,8.14-2.74,13.79-11.7,13.79c-8.26,0-11.21-5.55-11.21-13.69v-24.8
			c0-9.17,4.1-13.78,11.61-13.78C836.11,1187.46,840.06,1191.95,840.06,1200.77z M824.1,1200.46v26.27c0,4.34,1.33,6.56,4.53,6.56
			c3.05,0,4.43-2.06,4.43-6.78v-26.2c0-4.34-1.47-6.44-4.45-6.44C825.71,1193.88,824.1,1195.72,824.1,1200.46z"/>
		<path class="st0" d="M872.08,1200.77v25.16c0,8.14-2.74,13.79-11.7,13.79c-8.26,0-11.21-5.55-11.21-13.69v-24.8
			c0-9.17,4.1-13.78,11.61-13.78C868.13,1187.46,872.08,1191.95,872.08,1200.77z M856.11,1200.46v26.27c0,4.34,1.33,6.56,4.53,6.56
			c3.05,0,4.43-2.06,4.43-6.78v-26.2c0-4.34-1.47-6.44-4.45-6.44C857.73,1193.88,856.11,1195.72,856.11,1200.46z"/>
		<path class="st0" d="M904.09,1200.77v25.16c0,8.14-2.74,13.79-11.7,13.79c-8.26,0-11.21-5.55-11.21-13.69v-24.8
			c0-9.17,4.1-13.78,11.61-13.78C900.15,1187.46,904.09,1191.95,904.09,1200.77z M888.13,1200.46v26.27c0,4.34,1.33,6.56,4.53,6.56
			c3.05,0,4.43-2.06,4.43-6.78v-26.2c0-4.34-1.47-6.44-4.45-6.44C889.74,1193.88,888.13,1195.72,888.13,1200.46z"/>
		<path class="st0" d="M936.11,1200.77v25.16c0,8.14-2.74,13.79-11.7,13.79c-8.26,0-11.21-5.55-11.21-13.69v-24.8
			c0-9.17,4.1-13.78,11.61-13.78C932.16,1187.46,936.11,1191.95,936.11,1200.77z M920.15,1200.46v26.27c0,4.34,1.33,6.56,4.53,6.56
			c3.05,0,4.43-2.06,4.43-6.78v-26.2c0-4.34-1.47-6.44-4.45-6.44C921.76,1193.88,920.15,1195.72,920.15,1200.46z"/>
		<path class="st0" d="M968.13,1200.77v25.16c0,8.14-2.74,13.79-11.7,13.79c-8.26,0-11.21-5.55-11.21-13.69v-24.8
			c0-9.17,4.1-13.78,11.61-13.78C964.18,1187.46,968.13,1191.95,968.13,1200.77z M952.16,1200.46v26.27c0,4.34,1.33,6.56,4.53,6.56
			c3.05,0,4.43-2.06,4.43-6.78v-26.2c0-4.34-1.47-6.44-4.45-6.44C953.78,1193.88,952.16,1195.72,952.16,1200.46z"/>
		<path class="st0" d="M1000.14,1200.77v25.16c0,8.14-2.74,13.79-11.7,13.79c-8.26,0-11.21-5.55-11.21-13.69v-24.8
			c0-9.17,4.1-13.78,11.61-13.78C996.2,1187.46,1000.14,1191.95,1000.14,1200.77z M984.18,1200.46v26.27c0,4.34,1.33,6.56,4.53,6.56
			c3.05,0,4.43-2.06,4.43-6.78v-26.2c0-4.34-1.47-6.44-4.45-6.44C985.79,1193.88,984.18,1195.72,984.18,1200.46z"/>
		<path class="st0" d="M1032.16,1200.77v25.16c0,8.14-2.74,13.79-11.7,13.79c-8.26,0-11.21-5.55-11.21-13.69v-24.8
			c0-9.17,4.1-13.78,11.61-13.78C1028.21,1187.46,1032.16,1191.95,1032.16,1200.77z M1016.2,1200.46v26.27
			c0,4.34,1.33,6.56,4.53,6.56c3.05,0,4.43-2.06,4.43-6.78v-26.2c0-4.34-1.47-6.44-4.45-6.44
			C1017.81,1193.88,1016.2,1195.72,1016.2,1200.46z"/>
		<path class="st0" d="M1045,1239.1v-42.87c-1.41,0.38-4.22,0.74-5.46,0.78v-5.4c3.14-0.42,5.97-2.17,7.37-3.81h5.12v51.29H1045z"/>
		<path class="st0" d="M1086.17,1200.77v25.16c0,8.14-2.74,13.79-11.7,13.79c-8.26,0-11.21-5.55-11.21-13.69v-24.8
			c0-9.17,4.1-13.78,11.61-13.78C1082.22,1187.46,1086.17,1191.95,1086.17,1200.77z M1070.21,1200.46v26.27
			c0,4.34,1.33,6.56,4.53,6.56c3.05,0,4.43-2.06,4.43-6.78v-26.2c0-4.34-1.47-6.44-4.45-6.44
			C1071.82,1193.88,1070.21,1195.72,1070.21,1200.46z"/>
		<path class="st0" d="M1099.01,1239.1v-42.87c-1.41,0.38-4.22,0.74-5.46,0.78v-5.4c3.14-0.42,5.97-2.17,7.37-3.81h5.12v51.29
			H1099.01z"/>
	</g>
	<g>
		<path class="st0" d="M1206.19,306.38v44.73c0,14.46-4.88,24.51-20.79,24.51c-14.68,0-19.92-9.87-19.92-24.33V307.2
			c0-16.3,7.29-24.49,20.64-24.49C1199.18,282.71,1206.19,290.7,1206.19,306.38z M1177.82,305.83v46.7c0,7.72,2.36,11.67,8.06,11.67
			c5.42,0,7.88-3.66,7.88-12.05v-46.57c0-7.72-2.62-11.44-7.92-11.44C1180.69,294.13,1177.82,297.4,1177.82,305.83z"/>
		<path class="st0" d="M1263.1,306.38v44.73c0,14.46-4.88,24.51-20.79,24.51c-14.68,0-19.92-9.87-19.92-24.33V307.2
			c0-16.3,7.29-24.49,20.64-24.49C1256.09,282.71,1263.1,290.7,1263.1,306.38z M1234.73,305.83v46.7c0,7.72,2.36,11.67,8.06,11.67
			c5.42,0,7.88-3.66,7.88-12.05v-46.57c0-7.72-2.62-11.44-7.92-11.44C1237.6,294.13,1234.73,297.4,1234.73,305.83z"/>
		<path class="st0" d="M1320.01,306.38v44.73c0,14.46-4.88,24.51-20.79,24.51c-14.68,0-19.92-9.87-19.92-24.33V307.2
			c0-16.3,7.29-24.49,20.64-24.49C1313,282.71,1320.01,290.7,1320.01,306.38z M1291.64,305.83v46.7c0,7.72,2.36,11.67,8.06,11.67
			c5.42,0,7.88-3.66,7.88-12.05v-46.57c0-7.72-2.62-11.44-7.92-11.44C1294.51,294.13,1291.64,297.4,1291.64,305.83z"/>
		<path class="st0" d="M1376.92,306.38v44.73c0,14.46-4.88,24.51-20.79,24.51c-14.68,0-19.92-9.87-19.92-24.33V307.2
			c0-16.3,7.29-24.49,20.64-24.49C1369.91,282.71,1376.92,290.7,1376.92,306.38z M1348.55,305.83v46.7c0,7.72,2.36,11.67,8.06,11.67
			c5.42,0,7.88-3.66,7.88-12.05v-46.57c0-7.72-2.62-11.44-7.92-11.44C1351.42,294.13,1348.55,297.4,1348.55,305.83z"/>
		<path class="st0" d="M1433.83,306.38v44.73c0,14.46-4.88,24.51-20.79,24.51c-14.68,0-19.92-9.87-19.92-24.33V307.2
			c0-16.3,7.29-24.49,20.64-24.49C1426.82,282.71,1433.83,290.7,1433.83,306.38z M1405.46,305.83v46.7c0,7.72,2.36,11.67,8.06,11.67
			c5.42,0,7.88-3.66,7.88-12.05v-46.57c0-7.72-2.62-11.44-7.92-11.44C1408.33,294.13,1405.46,297.4,1405.46,305.83z"/>
		<path class="st0" d="M1490.74,306.38v44.73c0,14.46-4.88,24.51-20.79,24.51c-14.68,0-19.92-9.87-19.92-24.33V307.2
			c0-16.3,7.29-24.49,20.64-24.49C1483.73,282.71,1490.74,290.7,1490.74,306.38z M1462.37,305.83v46.7c0,7.72,2.36,11.67,8.06,11.67
			c5.42,0,7.88-3.66,7.88-12.05v-46.57c0-7.72-2.62-11.44-7.92-11.44C1465.24,294.13,1462.37,297.4,1462.37,305.83z"/>
		<path class="st0" d="M1513.56,374.5v-76.19c-2.51,0.68-7.5,1.32-9.71,1.39v-9.59c5.58-0.75,10.61-3.86,13.1-6.78h9.1v91.17
			H1513.56z"/>
		<path class="st0" d="M1586.74,306.38v44.73c0,14.46-4.88,24.51-20.79,24.51c-14.68,0-19.92-9.87-19.92-24.33V307.2
			c0-16.3,7.29-24.49,20.64-24.49C1579.73,282.71,1586.74,290.7,1586.74,306.38z M1558.37,305.83v46.7c0,7.72,2.36,11.67,8.06,11.67
			c5.42,0,7.88-3.66,7.88-12.05v-46.57c0-7.72-2.62-11.44-7.92-11.44C1561.24,294.13,1558.37,297.4,1558.37,305.83z"/>
		<path class="st0" d="M1643.65,306.38v44.73c0,14.46-4.88,24.51-20.79,24.51c-14.68,0-19.92-9.87-19.92-24.33V307.2
			c0-16.3,7.29-24.49,20.64-24.49C1636.64,282.71,1643.65,290.7,1643.65,306.38z M1615.28,305.83v46.7c0,7.72,2.36,11.67,8.06,11.67
			c5.42,0,7.88-3.66,7.88-12.05v-46.57c0-7.72-2.62-11.44-7.92-11.44C1618.15,294.13,1615.28,297.4,1615.28,305.83z"/>
		<path class="st0" d="M1666.47,374.5v-76.19c-2.51,0.68-7.5,1.32-9.71,1.39v-9.59c5.58-0.75,10.61-3.86,13.1-6.78h9.1v91.17
			H1666.47z"/>
	</g>
	<g>
		<path class="st0" d="M2201.22,838.12v44.73c0,14.46-4.88,24.51-20.79,24.51c-14.68,0-19.93-9.87-19.93-24.33v-44.09
			c0-16.3,7.29-24.49,20.64-24.49C2194.21,814.46,2201.22,822.45,2201.22,838.12z M2172.85,837.58v46.7
			c0,7.72,2.36,11.67,8.06,11.67c5.42,0,7.88-3.66,7.88-12.05v-46.57c0-7.72-2.62-11.44-7.92-11.44
			C2175.72,825.88,2172.85,829.15,2172.85,837.58z"/>
		<path class="st0" d="M2258.13,838.12v44.73c0,14.46-4.88,24.51-20.79,24.51c-14.68,0-19.93-9.87-19.93-24.33v-44.09
			c0-16.3,7.29-24.49,20.64-24.49C2251.12,814.46,2258.13,822.45,2258.13,838.12z M2229.76,837.58v46.7
			c0,7.72,2.36,11.67,8.06,11.67c5.42,0,7.88-3.66,7.88-12.05v-46.57c0-7.72-2.62-11.44-7.92-11.44
			C2232.63,825.88,2229.76,829.15,2229.76,837.58z"/>
		<path class="st0" d="M2315.04,838.12v44.73c0,14.46-4.88,24.51-20.79,24.51c-14.68,0-19.92-9.87-19.92-24.33v-44.09
			c0-16.3,7.29-24.49,20.64-24.49C2308.03,814.46,2315.04,822.45,2315.04,838.12z M2286.67,837.58v46.7
			c0,7.72,2.36,11.67,8.06,11.67c5.42,0,7.88-3.66,7.88-12.05v-46.57c0-7.72-2.62-11.44-7.92-11.44
			C2289.54,825.88,2286.67,829.15,2286.67,837.58z"/>
		<path class="st0" d="M2371.95,838.12v44.73c0,14.46-4.88,24.51-20.79,24.51c-14.68,0-19.92-9.87-19.92-24.33v-44.09
			c0-16.3,7.29-24.49,20.64-24.49C2364.94,814.46,2371.95,822.45,2371.95,838.12z M2343.58,837.58v46.7
			c0,7.72,2.36,11.67,8.06,11.67c5.42,0,7.88-3.66,7.88-12.05v-46.57c0-7.72-2.62-11.44-7.92-11.44
			C2346.45,825.88,2343.58,829.15,2343.58,837.58z"/>
		<path class="st0" d="M2394.77,906.25v-76.19c-2.51,0.68-7.5,1.32-9.71,1.39v-9.59c5.58-0.75,10.61-3.86,13.1-6.78h9.1v91.17
			H2394.77z"/>
		<path class="st0" d="M2467.95,838.12v44.73c0,14.46-4.88,24.51-20.79,24.51c-14.68,0-19.92-9.87-19.92-24.33v-44.09
			c0-16.3,7.29-24.49,20.64-24.49C2460.94,814.46,2467.95,822.45,2467.95,838.12z M2439.58,837.58v46.7
			c0,7.72,2.36,11.67,8.06,11.67c5.42,0,7.88-3.66,7.88-12.05v-46.57c0-7.72-2.62-11.44-7.92-11.44
			C2442.45,825.88,2439.58,829.15,2439.58,837.58z"/>
		<path class="st0" d="M2524.86,838.12v44.73c0,14.46-4.88,24.51-20.79,24.51c-14.68,0-19.92-9.87-19.92-24.33v-44.09
			c0-16.3,7.29-24.49,20.64-24.49C2517.85,814.46,2524.86,822.45,2524.86,838.12z M2496.49,837.58v46.7
			c0,7.72,2.36,11.67,8.06,11.67c5.42,0,7.88-3.66,7.88-12.05v-46.57c0-7.72-2.62-11.44-7.92-11.44
			C2499.36,825.88,2496.49,829.15,2496.49,837.58z"/>
		<path class="st0" d="M2581.77,838.12v44.73c0,14.46-4.88,24.51-20.79,24.51c-14.68,0-19.93-9.87-19.93-24.33v-44.09
			c0-16.3,7.29-24.49,20.64-24.49C2574.76,814.46,2581.77,822.45,2581.77,838.12z M2553.4,837.58v46.7c0,7.72,2.36,11.67,8.06,11.67
			c5.42,0,7.88-3.66,7.88-12.05v-46.57c0-7.72-2.62-11.44-7.92-11.44C2556.27,825.88,2553.4,829.15,2553.4,837.58z"/>
		<path class="st0" d="M2638.68,838.12v44.73c0,14.46-4.88,24.51-20.79,24.51c-14.68,0-19.93-9.87-19.93-24.33v-44.09
			c0-16.3,7.29-24.49,20.64-24.49C2631.67,814.46,2638.68,822.45,2638.68,838.12z M2610.31,837.58v46.7
			c0,7.72,2.36,11.67,8.06,11.67c5.42,0,7.88-3.66,7.88-12.05v-46.57c0-7.72-2.62-11.44-7.92-11.44
			C2613.18,825.88,2610.31,829.15,2610.31,837.58z"/>
		<path class="st0" d="M2661.5,906.25v-76.19c-2.51,0.68-7.5,1.32-9.71,1.39v-9.59c5.58-0.75,10.61-3.86,13.1-6.78h9.1v91.17H2661.5
			z"/>
	</g>
	<g>
		<path class="st0" d="M2180.12,515.34v44.73c0,14.46-4.88,24.51-20.79,24.51c-14.68,0-19.93-9.87-19.93-24.33v-44.09
			c0-16.3,7.29-24.49,20.64-24.49C2173.11,491.68,2180.12,499.66,2180.12,515.34z M2151.75,514.79v46.7
			c0,7.72,2.36,11.67,8.06,11.67c5.42,0,7.88-3.66,7.88-12.05v-46.57c0-7.72-2.62-11.44-7.92-11.44
			C2154.62,503.1,2151.75,506.36,2151.75,514.79z"/>
		<path class="st0" d="M2237.03,515.34v44.73c0,14.46-4.88,24.51-20.79,24.51c-14.68,0-19.93-9.87-19.93-24.33v-44.09
			c0-16.3,7.29-24.49,20.64-24.49C2230.01,491.68,2237.03,499.66,2237.03,515.34z M2208.66,514.79v46.7
			c0,7.72,2.36,11.67,8.06,11.67c5.42,0,7.88-3.66,7.88-12.05v-46.57c0-7.72-2.62-11.44-7.92-11.44
			C2211.53,503.1,2208.66,506.36,2208.66,514.79z"/>
		<path class="st0" d="M2293.94,515.34v44.73c0,14.46-4.88,24.51-20.79,24.51c-14.68,0-19.92-9.87-19.92-24.33v-44.09
			c0-16.3,7.29-24.49,20.64-24.49C2286.92,491.68,2293.94,499.66,2293.94,515.34z M2265.56,514.79v46.7
			c0,7.72,2.36,11.67,8.06,11.67c5.42,0,7.88-3.66,7.88-12.05v-46.57c0-7.72-2.62-11.44-7.92-11.44
			C2268.43,503.1,2265.56,506.36,2265.56,514.79z"/>
		<path class="st0" d="M2350.85,515.34v44.73c0,14.46-4.88,24.51-20.79,24.51c-14.68,0-19.92-9.87-19.92-24.33v-44.09
			c0-16.3,7.29-24.49,20.64-24.49C2343.83,491.68,2350.85,499.66,2350.85,515.34z M2322.47,514.79v46.7
			c0,7.72,2.36,11.67,8.06,11.67c5.42,0,7.88-3.66,7.88-12.05v-46.57c0-7.72-2.62-11.44-7.92-11.44
			C2325.34,503.1,2322.47,506.36,2322.47,514.79z"/>
		<path class="st0" d="M2407.76,515.34v44.73c0,14.46-4.88,24.51-20.79,24.51c-14.68,0-19.92-9.87-19.92-24.33v-44.09
			c0-16.3,7.29-24.49,20.64-24.49C2400.74,491.68,2407.76,499.66,2407.76,515.34z M2379.38,514.79v46.7
			c0,7.72,2.36,11.67,8.06,11.67c5.42,0,7.88-3.66,7.88-12.05v-46.57c0-7.72-2.62-11.44-7.92-11.44
			C2382.25,503.1,2379.38,506.36,2379.38,514.79z"/>
		<path class="st0" d="M2464.67,515.34v44.73c0,14.46-4.88,24.51-20.79,24.51c-14.68,0-19.92-9.87-19.92-24.33v-44.09
			c0-16.3,7.29-24.49,20.64-24.49C2457.65,491.68,2464.67,499.66,2464.67,515.34z M2436.29,514.79v46.7
			c0,7.72,2.36,11.67,8.06,11.67c5.42,0,7.88-3.66,7.88-12.05v-46.57c0-7.72-2.62-11.44-7.92-11.44
			C2439.16,503.1,2436.29,506.36,2436.29,514.79z"/>
		<path class="st0" d="M2521.57,515.34v44.73c0,14.46-4.88,24.51-20.79,24.51c-14.68,0-19.92-9.87-19.92-24.33v-44.09
			c0-16.3,7.29-24.49,20.64-24.49C2514.56,491.68,2521.57,499.66,2521.57,515.34z M2493.2,514.79v46.7c0,7.72,2.36,11.67,8.06,11.67
			c5.42,0,7.88-3.66,7.88-12.05v-46.57c0-7.72-2.62-11.44-7.92-11.44C2496.07,503.1,2493.2,506.36,2493.2,514.79z"/>
		<path class="st0" d="M2578.48,515.34v44.73c0,14.46-4.88,24.51-20.79,24.51c-14.68,0-19.93-9.87-19.93-24.33v-44.09
			c0-16.3,7.29-24.49,20.64-24.49C2571.47,491.68,2578.48,499.66,2578.48,515.34z M2550.11,514.79v46.7
			c0,7.72,2.36,11.67,8.06,11.67c5.42,0,7.88-3.66,7.88-12.05v-46.57c0-7.72-2.62-11.44-7.92-11.44
			C2552.98,503.1,2550.11,506.36,2550.11,514.79z"/>
		<path class="st0" d="M2601.3,583.47v-76.19c-2.51,0.68-7.5,1.32-9.71,1.39v-9.59c5.58-0.75,10.61-3.86,13.1-6.78h9.1v91.17H2601.3
			z"/>
		<path class="st0" d="M2638.58,583.47v-76.19c-2.51,0.68-7.5,1.32-9.71,1.39v-9.59c5.58-0.75,10.61-3.86,13.1-6.78h9.1v91.17
			H2638.58z"/>
	</g>
	<g>
		<path class="st0" d="M2206.45,1027.69v44.73c0,14.46-4.88,24.51-20.79,24.51c-14.68,0-19.92-9.87-19.92-24.33v-44.09
			c0-16.3,7.29-24.49,20.64-24.49C2199.44,1004.03,2206.45,1012.02,2206.45,1027.69z M2178.08,1027.15v46.7
			c0,7.72,2.36,11.67,8.06,11.67c5.42,0,7.88-3.66,7.88-12.05v-46.57c0-7.72-2.62-11.44-7.92-11.44
			C2180.95,1015.45,2178.08,1018.71,2178.08,1027.15z"/>
		<path class="st0" d="M2263.36,1027.69v44.73c0,14.46-4.88,24.51-20.79,24.51c-14.68,0-19.93-9.87-19.93-24.33v-44.09
			c0-16.3,7.29-24.49,20.64-24.49C2256.35,1004.03,2263.36,1012.02,2263.36,1027.69z M2234.99,1027.15v46.7
			c0,7.72,2.36,11.67,8.06,11.67c5.42,0,7.88-3.66,7.88-12.05v-46.57c0-7.72-2.62-11.44-7.92-11.44
			C2237.86,1015.45,2234.99,1018.71,2234.99,1027.15z"/>
		<path class="st0" d="M2320.27,1027.69v44.73c0,14.46-4.88,24.51-20.79,24.51c-14.68,0-19.92-9.87-19.92-24.33v-44.09
			c0-16.3,7.29-24.49,20.64-24.49C2313.26,1004.03,2320.27,1012.02,2320.27,1027.69z M2291.9,1027.15v46.7
			c0,7.72,2.36,11.67,8.06,11.67c5.42,0,7.88-3.66,7.88-12.05v-46.57c0-7.72-2.62-11.44-7.92-11.44
			C2294.77,1015.45,2291.9,1018.71,2291.9,1027.15z"/>
		<path class="st0" d="M2377.18,1027.69v44.73c0,14.46-4.88,24.51-20.79,24.51c-14.68,0-19.92-9.87-19.92-24.33v-44.09
			c0-16.3,7.29-24.49,20.64-24.49C2370.17,1004.03,2377.18,1012.02,2377.18,1027.69z M2348.81,1027.15v46.7
			c0,7.72,2.36,11.67,8.06,11.67c5.42,0,7.88-3.66,7.88-12.05v-46.57c0-7.72-2.62-11.44-7.92-11.44
			C2351.68,1015.45,2348.81,1018.71,2348.81,1027.15z"/>
		<path class="st0" d="M2434.09,1027.69v44.73c0,14.46-4.88,24.51-20.79,24.51c-14.68,0-19.92-9.87-19.92-24.33v-44.09
			c0-16.3,7.29-24.49,20.64-24.49C2427.08,1004.03,2434.09,1012.02,2434.09,1027.69z M2405.72,1027.15v46.7
			c0,7.72,2.36,11.67,8.06,11.67c5.42,0,7.88-3.66,7.88-12.05v-46.57c0-7.72-2.62-11.44-7.92-11.44
			C2408.59,1015.45,2405.72,1018.71,2405.72,1027.15z"/>
		<path class="st0" d="M2491,1027.69v44.73c0,14.46-4.88,24.51-20.79,24.51c-14.68,0-19.92-9.87-19.92-24.33v-44.09
			c0-16.3,7.29-24.49,20.64-24.49C2483.99,1004.03,2491,1012.02,2491,1027.69z M2462.63,1027.15v46.7c0,7.72,2.36,11.67,8.06,11.67
			c5.42,0,7.88-3.66,7.88-12.05v-46.57c0-7.72-2.62-11.44-7.92-11.44C2465.5,1015.45,2462.63,1018.71,2462.63,1027.15z"/>
		<path class="st0" d="M2547.91,1027.69v44.73c0,14.46-4.88,24.51-20.79,24.51c-14.68,0-19.92-9.87-19.92-24.33v-44.09
			c0-16.3,7.29-24.49,20.64-24.49C2540.9,1004.03,2547.91,1012.02,2547.91,1027.69z M2519.54,1027.15v46.7
			c0,7.72,2.36,11.67,8.06,11.67c5.42,0,7.88-3.66,7.88-12.05v-46.57c0-7.72-2.62-11.44-7.92-11.44
			C2522.41,1015.45,2519.54,1018.71,2519.54,1027.15z"/>
		<path class="st0" d="M2570.73,1095.82v-76.19c-2.51,0.68-7.5,1.32-9.71,1.39v-9.59c5.58-0.75,10.61-3.86,13.1-6.78h9.1v91.17
			H2570.73z"/>
		<path class="st0" d="M2643.91,1027.69v44.73c0,14.46-4.88,24.51-20.79,24.51c-14.68,0-19.93-9.87-19.93-24.33v-44.09
			c0-16.3,7.29-24.49,20.64-24.49C2636.9,1004.03,2643.91,1012.02,2643.91,1027.69z M2615.54,1027.15v46.7
			c0,7.72,2.36,11.67,8.06,11.67c5.42,0,7.88-3.66,7.88-12.05v-46.57c0-7.72-2.62-11.44-7.92-11.44
			C2618.41,1015.45,2615.54,1018.71,2615.54,1027.15z"/>
		<path class="st0" d="M2666.73,1095.82v-76.19c-2.51,0.68-7.5,1.32-9.71,1.39v-9.59c5.58-0.75,10.61-3.86,13.1-6.78h9.1v91.17
			H2666.73z"/>
	</g>
	<g>
		<path class="st0" d="M1243.07,1435.18v44.73c0,14.46-4.88,24.51-20.79,24.51c-14.68,0-19.92-9.87-19.92-24.33v-44.09
			c0-16.3,7.29-24.49,20.64-24.49C1236.05,1411.52,1243.07,1419.51,1243.07,1435.18z M1214.69,1434.64v46.7
			c0,7.72,2.36,11.67,8.06,11.67c5.42,0,7.88-3.66,7.88-12.05v-46.57c0-7.72-2.62-11.44-7.92-11.44
			C1217.56,1422.94,1214.69,1426.21,1214.69,1434.64z"/>
		<path class="st0" d="M1299.98,1435.18v44.73c0,14.46-4.88,24.51-20.79,24.51c-14.68,0-19.92-9.87-19.92-24.33v-44.09
			c0-16.3,7.29-24.49,20.64-24.49C1292.96,1411.52,1299.98,1419.51,1299.98,1435.18z M1271.6,1434.64v46.7
			c0,7.72,2.36,11.67,8.06,11.67c5.42,0,7.88-3.66,7.88-12.05v-46.57c0-7.72-2.62-11.44-7.92-11.44
			C1274.47,1422.94,1271.6,1426.21,1271.6,1434.64z"/>
		<path class="st0" d="M1356.89,1435.18v44.73c0,14.46-4.88,24.51-20.79,24.51c-14.68,0-19.92-9.87-19.92-24.33v-44.09
			c0-16.3,7.29-24.49,20.64-24.49C1349.87,1411.52,1356.89,1419.51,1356.89,1435.18z M1328.51,1434.64v46.7
			c0,7.72,2.36,11.67,8.06,11.67c5.42,0,7.88-3.66,7.88-12.05v-46.57c0-7.72-2.62-11.44-7.92-11.44
			C1331.38,1422.94,1328.51,1426.21,1328.51,1434.64z"/>
		<path class="st0" d="M1413.8,1435.18v44.73c0,14.46-4.88,24.51-20.79,24.51c-14.68,0-19.92-9.87-19.92-24.33v-44.09
			c0-16.3,7.29-24.49,20.64-24.49C1406.78,1411.52,1413.8,1419.51,1413.8,1435.18z M1385.42,1434.64v46.7
			c0,7.72,2.36,11.67,8.06,11.67c5.42,0,7.88-3.66,7.88-12.05v-46.57c0-7.72-2.62-11.44-7.92-11.44
			C1388.29,1422.94,1385.42,1426.21,1385.42,1434.64z"/>
		<path class="st0" d="M1470.7,1435.18v44.73c0,14.46-4.88,24.51-20.79,24.51c-14.68,0-19.92-9.87-19.92-24.33v-44.09
			c0-16.3,7.29-24.49,20.64-24.49C1463.69,1411.52,1470.7,1419.51,1470.7,1435.18z M1442.33,1434.64v46.7
			c0,7.72,2.36,11.67,8.06,11.67c5.42,0,7.88-3.66,7.88-12.05v-46.57c0-7.72-2.62-11.44-7.92-11.44
			C1445.2,1422.94,1442.33,1426.21,1442.33,1434.64z"/>
		<path class="st0" d="M1527.61,1435.18v44.73c0,14.46-4.88,24.51-20.79,24.51c-14.68,0-19.92-9.87-19.92-24.33v-44.09
			c0-16.3,7.29-24.49,20.64-24.49C1520.6,1411.52,1527.61,1419.51,1527.61,1435.18z M1499.24,1434.64v46.7
			c0,7.72,2.36,11.67,8.06,11.67c5.42,0,7.88-3.66,7.88-12.05v-46.57c0-7.72-2.62-11.44-7.92-11.44
			C1502.11,1422.94,1499.24,1426.21,1499.24,1434.64z"/>
		<path class="st0" d="M1550.43,1503.31v-76.19c-2.51,0.68-7.5,1.32-9.71,1.39v-9.59c5.58-0.75,10.61-3.86,13.1-6.78h9.1v91.17
			H1550.43z"/>
		<path class="st0" d="M1623.61,1435.18v44.73c0,14.46-4.88,24.51-20.79,24.51c-14.68,0-19.92-9.87-19.92-24.33v-44.09
			c0-16.3,7.29-24.49,20.64-24.49C1616.6,1411.52,1623.61,1419.51,1623.61,1435.18z M1595.24,1434.64v46.7
			c0,7.72,2.36,11.67,8.06,11.67c5.42,0,7.88-3.66,7.88-12.05v-46.57c0-7.72-2.62-11.44-7.92-11.44
			C1598.11,1422.94,1595.24,1426.21,1595.24,1434.64z"/>
		<path class="st0" d="M1680.52,1435.18v44.73c0,14.46-4.88,24.51-20.79,24.51c-14.68,0-19.92-9.87-19.92-24.33v-44.09
			c0-16.3,7.29-24.49,20.64-24.49C1673.51,1411.52,1680.52,1419.51,1680.52,1435.18z M1652.15,1434.64v46.7
			c0,7.72,2.36,11.67,8.06,11.67c5.42,0,7.88-3.66,7.88-12.05v-46.57c0-7.72-2.62-11.44-7.92-11.44
			C1655.02,1422.94,1652.15,1426.21,1652.15,1434.64z"/>
		<path class="st0" d="M1703.34,1503.31v-76.19c-2.51,0.68-7.5,1.32-9.71,1.39v-9.59c5.58-0.75,10.61-3.86,13.1-6.78h9.1v91.17
			H1703.34z"/>
	</g>
	<g>
		<path class="st0" d="M2180.54,345.87v17.63c0,5.7-1.92,9.66-8.19,9.66c-5.79,0-7.85-3.89-7.85-9.59v-17.37
			c0-6.43,2.87-9.65,8.13-9.65C2177.77,336.54,2180.54,339.69,2180.54,345.87z M2169.36,345.65v18.4c0,3.04,0.93,4.6,3.18,4.6
			c2.14,0,3.1-1.44,3.1-4.75v-18.35c0-3.04-1.03-4.51-3.12-4.51C2170.49,341.04,2169.36,342.33,2169.36,345.65z"/>
		<path class="st0" d="M2202.97,345.87v17.63c0,5.7-1.92,9.66-8.19,9.66c-5.79,0-7.85-3.89-7.85-9.59v-17.37
			c0-6.43,2.87-9.65,8.13-9.65C2200.2,336.54,2202.97,339.69,2202.97,345.87z M2191.78,345.65v18.4c0,3.04,0.93,4.6,3.18,4.6
			c2.14,0,3.1-1.44,3.1-4.75v-18.35c0-3.04-1.03-4.51-3.12-4.51C2192.92,341.04,2191.78,342.33,2191.78,345.65z"/>
		<path class="st0" d="M2225.39,345.87v17.63c0,5.7-1.92,9.66-8.19,9.66c-5.79,0-7.85-3.89-7.85-9.59v-17.37
			c0-6.43,2.87-9.65,8.13-9.65C2222.63,336.54,2225.39,339.69,2225.39,345.87z M2214.21,345.65v18.4c0,3.04,0.93,4.6,3.18,4.6
			c2.14,0,3.1-1.44,3.1-4.75v-18.35c0-3.04-1.03-4.51-3.12-4.51C2215.34,341.04,2214.21,342.33,2214.21,345.65z"/>
		<path class="st0" d="M2247.82,345.87v17.63c0,5.7-1.92,9.66-8.19,9.66c-5.79,0-7.85-3.89-7.85-9.59v-17.37
			c0-6.43,2.87-9.65,8.13-9.65C2245.06,336.54,2247.82,339.69,2247.82,345.87z M2236.64,345.65v18.4c0,3.04,0.93,4.6,3.18,4.6
			c2.14,0,3.1-1.44,3.1-4.75v-18.35c0-3.04-1.03-4.51-3.12-4.51C2237.77,341.04,2236.64,342.33,2236.64,345.65z"/>
		<path class="st0" d="M2270.25,345.87v17.63c0,5.7-1.92,9.66-8.19,9.66c-5.79,0-7.85-3.89-7.85-9.59v-17.37
			c0-6.43,2.87-9.65,8.13-9.65C2267.49,336.54,2270.25,339.69,2270.25,345.87z M2259.07,345.65v18.4c0,3.04,0.93,4.6,3.18,4.6
			c2.14,0,3.1-1.44,3.1-4.75v-18.35c0-3.04-1.03-4.51-3.12-4.51C2260.2,341.04,2259.07,342.33,2259.07,345.65z"/>
		<path class="st0" d="M2292.68,345.87v17.63c0,5.7-1.92,9.66-8.19,9.66c-5.79,0-7.85-3.89-7.85-9.59v-17.37
			c0-6.43,2.87-9.65,8.13-9.65C2289.91,336.54,2292.68,339.69,2292.68,345.87z M2281.5,345.65v18.4c0,3.04,0.93,4.6,3.18,4.6
			c2.14,0,3.1-1.44,3.1-4.75v-18.35c0-3.04-1.03-4.51-3.12-4.51C2282.63,341.04,2281.5,342.33,2281.5,345.65z"/>
		<path class="st0" d="M2301.67,372.71v-30.03c-0.99,0.27-2.96,0.52-3.82,0.55v-3.78c2.2-0.3,4.18-1.52,5.16-2.67h3.59v35.93
			H2301.67z"/>
		<path class="st0" d="M2330.51,345.87v17.63c0,5.7-1.92,9.66-8.19,9.66c-5.79,0-7.85-3.89-7.85-9.59v-17.37
			c0-6.43,2.87-9.65,8.13-9.65C2327.75,336.54,2330.51,339.69,2330.51,345.87z M2319.33,345.65v18.4c0,3.04,0.93,4.6,3.18,4.6
			c2.14,0,3.1-1.44,3.1-4.75v-18.35c0-3.04-1.03-4.51-3.12-4.51C2320.46,341.04,2319.33,342.33,2319.33,345.65z"/>
		<path class="st0" d="M2352.94,345.87v17.63c0,5.7-1.92,9.66-8.19,9.66c-5.79,0-7.85-3.89-7.85-9.59v-17.37
			c0-6.43,2.87-9.65,8.13-9.65C2350.18,336.54,2352.94,339.69,2352.94,345.87z M2341.76,345.65v18.4c0,3.04,0.93,4.6,3.18,4.6
			c2.14,0,3.1-1.44,3.1-4.75v-18.35c0-3.04-1.03-4.51-3.12-4.51C2342.89,341.04,2341.76,342.33,2341.76,345.65z"/>
		<path class="st0" d="M2361.93,372.71v-30.03c-0.99,0.27-2.96,0.52-3.82,0.55v-3.78c2.2-0.3,4.18-1.52,5.16-2.67h3.59v35.93
			H2361.93z"/>
	</g>
	<g>
		<path class="st0" d="M2063.15,141.98v17.63c0,5.7-1.92,9.66-8.19,9.66c-5.79,0-7.85-3.89-7.85-9.59v-17.37
			c0-6.43,2.87-9.65,8.13-9.65C2060.38,132.66,2063.15,135.8,2063.15,141.98z M2051.96,141.77v18.4c0,3.04,0.93,4.6,3.18,4.6
			c2.14,0,3.1-1.44,3.1-4.75v-18.35c0-3.04-1.03-4.51-3.12-4.51C2053.1,137.16,2051.96,138.44,2051.96,141.77z"/>
		<path class="st0" d="M2085.57,141.98v17.63c0,5.7-1.92,9.66-8.19,9.66c-5.79,0-7.85-3.89-7.85-9.59v-17.37
			c0-6.43,2.87-9.65,8.13-9.65C2082.81,132.66,2085.57,135.8,2085.57,141.98z M2074.39,141.77v18.4c0,3.04,0.93,4.6,3.18,4.6
			c2.14,0,3.1-1.44,3.1-4.75v-18.35c0-3.04-1.03-4.51-3.12-4.51C2075.52,137.16,2074.39,138.44,2074.39,141.77z"/>
		<path class="st0" d="M2108,141.98v17.63c0,5.7-1.92,9.66-8.19,9.66c-5.79,0-7.85-3.89-7.85-9.59v-17.37
			c0-6.43,2.87-9.65,8.13-9.65C2105.24,132.66,2108,135.8,2108,141.98z M2096.82,141.77v18.4c0,3.04,0.93,4.6,3.18,4.6
			c2.14,0,3.1-1.44,3.1-4.75v-18.35c0-3.04-1.03-4.51-3.12-4.51C2097.95,137.16,2096.82,138.44,2096.82,141.77z"/>
		<path class="st0" d="M2130.43,141.98v17.63c0,5.7-1.92,9.66-8.19,9.66c-5.79,0-7.85-3.89-7.85-9.59v-17.37
			c0-6.43,2.87-9.65,8.13-9.65C2127.67,132.66,2130.43,135.8,2130.43,141.98z M2119.25,141.77v18.4c0,3.04,0.93,4.6,3.18,4.6
			c2.14,0,3.1-1.44,3.1-4.75v-18.35c0-3.04-1.03-4.51-3.12-4.51C2120.38,137.16,2119.25,138.44,2119.25,141.77z"/>
		<path class="st0" d="M2139.42,168.83V138.8c-0.99,0.27-2.96,0.52-3.82,0.55v-3.78c2.2-0.3,4.18-1.52,5.16-2.67h3.59v35.93H2139.42
			z"/>
		<path class="st0" d="M2168.26,141.98v17.63c0,5.7-1.92,9.66-8.19,9.66c-5.79,0-7.85-3.89-7.85-9.59v-17.37
			c0-6.43,2.87-9.65,8.13-9.65C2165.5,132.66,2168.26,135.8,2168.26,141.98z M2157.08,141.77v18.4c0,3.04,0.93,4.6,3.18,4.6
			c2.14,0,3.1-1.44,3.1-4.75v-18.35c0-3.04-1.03-4.51-3.12-4.51C2158.21,137.16,2157.08,138.44,2157.08,141.77z"/>
		<path class="st0" d="M2190.69,141.98v17.63c0,5.7-1.92,9.66-8.19,9.66c-5.79,0-7.85-3.89-7.85-9.59v-17.37
			c0-6.43,2.87-9.65,8.13-9.65C2187.93,132.66,2190.69,135.8,2190.69,141.98z M2179.51,141.77v18.4c0,3.04,0.93,4.6,3.18,4.6
			c2.14,0,3.1-1.44,3.1-4.75v-18.35c0-3.04-1.03-4.51-3.12-4.51C2180.64,137.16,2179.51,138.44,2179.51,141.77z"/>
		<path class="st0" d="M2213.12,141.98v17.63c0,5.7-1.92,9.66-8.19,9.66c-5.79,0-7.85-3.89-7.85-9.59v-17.37
			c0-6.43,2.87-9.65,8.13-9.65C2210.35,132.66,2213.12,135.8,2213.12,141.98z M2201.94,141.77v18.4c0,3.04,0.93,4.6,3.18,4.6
			c2.14,0,3.1-1.44,3.1-4.75v-18.35c0-3.04-1.03-4.51-3.12-4.51C2203.07,137.16,2201.94,138.44,2201.94,141.77z"/>
		<path class="st0" d="M2235.55,141.98v17.63c0,5.7-1.92,9.66-8.19,9.66c-5.79,0-7.85-3.89-7.85-9.59v-17.37
			c0-6.43,2.87-9.65,8.13-9.65C2232.78,132.66,2235.55,135.8,2235.55,141.98z M2224.36,141.77v18.4c0,3.04,0.93,4.6,3.18,4.6
			c2.14,0,3.1-1.44,3.1-4.75v-18.35c0-3.04-1.03-4.51-3.12-4.51C2225.5,137.16,2224.36,138.44,2224.36,141.77z"/>
		<path class="st0" d="M2244.54,168.83V138.8c-0.99,0.27-2.96,0.52-3.82,0.55v-3.78c2.2-0.3,4.18-1.52,5.16-2.67h3.59v35.93H2244.54
			z"/>
	</g>
	<g>
		<path class="st0" d="M2463.88,382.32v17.63c0,5.7-1.92,9.66-8.19,9.66c-5.79,0-7.85-3.89-7.85-9.59v-17.37
			c0-6.43,2.87-9.65,8.13-9.65C2461.12,372.99,2463.88,376.14,2463.88,382.32z M2452.7,382.1v18.4c0,3.04,0.93,4.6,3.18,4.6
			c2.14,0,3.1-1.44,3.1-4.75V382c0-3.04-1.03-4.51-3.12-4.51C2453.83,377.49,2452.7,378.78,2452.7,382.1z"/>
		<path class="st0" d="M2486.31,382.32v17.63c0,5.7-1.92,9.66-8.19,9.66c-5.79,0-7.85-3.89-7.85-9.59v-17.37
			c0-6.43,2.87-9.65,8.13-9.65C2483.54,372.99,2486.31,376.14,2486.31,382.32z M2475.13,382.1v18.4c0,3.04,0.93,4.6,3.18,4.6
			c2.14,0,3.1-1.44,3.1-4.75V382c0-3.04-1.03-4.51-3.12-4.51C2476.26,377.49,2475.13,378.78,2475.13,382.1z"/>
		<path class="st0" d="M2508.74,382.32v17.63c0,5.7-1.92,9.66-8.19,9.66c-5.79,0-7.85-3.89-7.85-9.59v-17.37
			c0-6.43,2.87-9.65,8.13-9.65C2505.97,372.99,2508.74,376.14,2508.74,382.32z M2497.55,382.1v18.4c0,3.04,0.93,4.6,3.18,4.6
			c2.14,0,3.1-1.44,3.1-4.75V382c0-3.04-1.03-4.51-3.12-4.51C2498.69,377.49,2497.55,378.78,2497.55,382.1z"/>
		<path class="st0" d="M2531.16,382.32v17.63c0,5.7-1.92,9.66-8.19,9.66c-5.79,0-7.85-3.89-7.85-9.59v-17.37
			c0-6.43,2.87-9.65,8.13-9.65C2528.4,372.99,2531.16,376.14,2531.16,382.32z M2519.98,382.1v18.4c0,3.04,0.93,4.6,3.18,4.6
			c2.14,0,3.1-1.44,3.1-4.75V382c0-3.04-1.03-4.51-3.12-4.51C2521.11,377.49,2519.98,378.78,2519.98,382.1z"/>
		<path class="st0" d="M2553.59,382.32v17.63c0,5.7-1.92,9.66-8.19,9.66c-5.79,0-7.85-3.89-7.85-9.59v-17.37
			c0-6.43,2.87-9.65,8.13-9.65C2550.83,372.99,2553.59,376.14,2553.59,382.32z M2542.41,382.1v18.4c0,3.04,0.93,4.6,3.18,4.6
			c2.14,0,3.1-1.44,3.1-4.75V382c0-3.04-1.03-4.51-3.12-4.51C2543.54,377.49,2542.41,378.78,2542.41,382.1z"/>
		<path class="st0" d="M2576.02,382.32v17.63c0,5.7-1.92,9.66-8.19,9.66c-5.79,0-7.85-3.89-7.85-9.59v-17.37
			c0-6.43,2.87-9.65,8.13-9.65C2573.26,372.99,2576.02,376.14,2576.02,382.32z M2564.84,382.1v18.4c0,3.04,0.93,4.6,3.18,4.6
			c2.14,0,3.1-1.44,3.1-4.75V382c0-3.04-1.03-4.51-3.12-4.51C2565.97,377.49,2564.84,378.78,2564.84,382.1z"/>
		<path class="st0" d="M2598.45,382.32v17.63c0,5.7-1.92,9.66-8.19,9.66c-5.79,0-7.85-3.89-7.85-9.59v-17.37
			c0-6.43,2.87-9.65,8.13-9.65C2595.68,372.99,2598.45,376.14,2598.45,382.32z M2587.27,382.1v18.4c0,3.04,0.93,4.6,3.18,4.6
			c2.14,0,3.1-1.44,3.1-4.75V382c0-3.04-1.03-4.51-3.12-4.51C2588.4,377.49,2587.27,378.78,2587.27,382.1z"/>
		<path class="st0" d="M2620.88,382.32v17.63c0,5.7-1.92,9.66-8.19,9.66c-5.79,0-7.85-3.89-7.85-9.59v-17.37
			c0-6.43,2.87-9.65,8.13-9.65C2618.11,372.99,2620.88,376.14,2620.88,382.32z M2609.69,382.1v18.4c0,3.04,0.93,4.6,3.18,4.6
			c2.14,0,3.1-1.44,3.1-4.75V382c0-3.04-1.03-4.51-3.12-4.51C2610.82,377.49,2609.69,378.78,2609.69,382.1z"/>
		<path class="st0" d="M2629.87,409.17v-30.03c-0.99,0.27-2.96,0.52-3.82,0.55v-3.78c2.2-0.3,4.18-1.52,5.16-2.67h3.59v35.93
			H2629.87z"/>
		<path class="st0" d="M2644.56,409.17v-30.03c-0.99,0.27-2.96,0.52-3.82,0.55v-3.78c2.2-0.3,4.18-1.52,5.16-2.67h3.59v35.93
			H2644.56z"/>
	</g>
	<g>
		<path class="st0" d="M615.28,1105.56v17.63c0,5.7-1.92,9.66-8.19,9.66c-5.79,0-7.85-3.89-7.85-9.59v-17.37
			c0-6.43,2.87-9.65,8.13-9.65C612.52,1096.24,615.28,1099.39,615.28,1105.56z M604.1,1105.35v18.4c0,3.04,0.93,4.6,3.18,4.6
			c2.14,0,3.1-1.44,3.1-4.75v-18.35c0-3.04-1.03-4.51-3.12-4.51C605.23,1100.74,604.1,1102.03,604.1,1105.35z"/>
		<path class="st0" d="M637.71,1105.56v17.63c0,5.7-1.92,9.66-8.19,9.66c-5.79,0-7.85-3.89-7.85-9.59v-17.37
			c0-6.43,2.87-9.65,8.13-9.65C634.95,1096.24,637.71,1099.39,637.71,1105.56z M626.53,1105.35v18.4c0,3.04,0.93,4.6,3.18,4.6
			c2.14,0,3.1-1.44,3.1-4.75v-18.35c0-3.04-1.03-4.51-3.12-4.51C627.66,1100.74,626.53,1102.03,626.53,1105.35z"/>
		<path class="st0" d="M660.14,1105.56v17.63c0,5.7-1.92,9.66-8.19,9.66c-5.79,0-7.85-3.89-7.85-9.59v-17.37
			c0-6.43,2.87-9.65,8.13-9.65C657.37,1096.24,660.14,1099.39,660.14,1105.56z M648.96,1105.35v18.4c0,3.04,0.93,4.6,3.18,4.6
			c2.14,0,3.1-1.44,3.1-4.75v-18.35c0-3.04-1.03-4.51-3.12-4.51C650.09,1100.74,648.96,1102.03,648.96,1105.35z"/>
		<path class="st0" d="M682.57,1105.56v17.63c0,5.7-1.92,9.66-8.19,9.66c-5.79,0-7.85-3.89-7.85-9.59v-17.37
			c0-6.43,2.87-9.65,8.13-9.65C679.8,1096.24,682.57,1099.39,682.57,1105.56z M671.38,1105.35v18.4c0,3.04,0.93,4.6,3.18,4.6
			c2.14,0,3.1-1.44,3.1-4.75v-18.35c0-3.04-1.03-4.51-3.12-4.51C672.52,1100.74,671.38,1102.03,671.38,1105.35z"/>
		<path class="st0" d="M704.99,1105.56v17.63c0,5.7-1.92,9.66-8.19,9.66c-5.79,0-7.85-3.89-7.85-9.59v-17.37
			c0-6.43,2.87-9.65,8.13-9.65C702.23,1096.24,704.99,1099.39,704.99,1105.56z M693.81,1105.35v18.4c0,3.04,0.93,4.6,3.18,4.6
			c2.14,0,3.1-1.44,3.1-4.75v-18.35c0-3.04-1.03-4.51-3.12-4.51C694.94,1100.74,693.81,1102.03,693.81,1105.35z"/>
		<path class="st0" d="M727.42,1105.56v17.63c0,5.7-1.92,9.66-8.19,9.66c-5.79,0-7.85-3.89-7.85-9.59v-17.37
			c0-6.43,2.87-9.65,8.13-9.65C724.66,1096.24,727.42,1099.39,727.42,1105.56z M716.24,1105.35v18.4c0,3.04,0.93,4.6,3.18,4.6
			c2.14,0,3.1-1.44,3.1-4.75v-18.35c0-3.04-1.03-4.51-3.12-4.51C717.37,1100.74,716.24,1102.03,716.24,1105.35z"/>
		<path class="st0" d="M749.85,1105.56v17.63c0,5.7-1.92,9.66-8.19,9.66c-5.79,0-7.85-3.89-7.85-9.59v-17.37
			c0-6.43,2.87-9.65,8.13-9.65C747.09,1096.24,749.85,1099.39,749.85,1105.56z M738.67,1105.35v18.4c0,3.04,0.93,4.6,3.18,4.6
			c2.14,0,3.1-1.44,3.1-4.75v-18.35c0-3.04-1.03-4.51-3.12-4.51C739.8,1100.74,738.67,1102.03,738.67,1105.35z"/>
		<path class="st0" d="M758.84,1132.41v-30.03c-0.99,0.27-2.96,0.52-3.83,0.55v-3.78c2.2-0.3,4.18-1.52,5.16-2.67h3.59v35.93H758.84
			z"/>
		<path class="st0" d="M787.68,1105.56v17.63c0,5.7-1.92,9.66-8.19,9.66c-5.79,0-7.85-3.89-7.85-9.59v-17.37
			c0-6.43,2.87-9.65,8.13-9.65C784.92,1096.24,787.68,1099.39,787.68,1105.56z M776.5,1105.35v18.4c0,3.04,0.93,4.6,3.18,4.6
			c2.14,0,3.1-1.44,3.1-4.75v-18.35c0-3.04-1.03-4.51-3.12-4.51C777.63,1100.74,776.5,1102.03,776.5,1105.35z"/>
		<path class="st0" d="M796.68,1132.41v-30.03c-0.99,0.27-2.96,0.52-3.83,0.55v-3.78c2.2-0.3,4.18-1.52,5.16-2.67h3.59v35.93H796.68
			z"/>
	</g>
	<g>
		<path class="st0" d="M1368.81,624.54v17.63c0,5.7-1.92,9.66-8.19,9.66c-5.79,0-7.85-3.89-7.85-9.59v-17.37
			c0-6.43,2.87-9.65,8.13-9.65C1366.05,615.22,1368.81,618.36,1368.81,624.54z M1357.63,624.33v18.4c0,3.04,0.93,4.6,3.18,4.6
			c2.14,0,3.1-1.44,3.1-4.75v-18.35c0-3.04-1.03-4.51-3.12-4.51C1358.76,619.72,1357.63,621,1357.63,624.33z"/>
		<path class="st0" d="M1391.24,624.54v17.63c0,5.7-1.92,9.66-8.19,9.66c-5.79,0-7.85-3.89-7.85-9.59v-17.37
			c0-6.43,2.87-9.65,8.13-9.65C1388.48,615.22,1391.24,618.36,1391.24,624.54z M1380.06,624.33v18.4c0,3.04,0.93,4.6,3.18,4.6
			c2.14,0,3.1-1.44,3.1-4.75v-18.35c0-3.04-1.03-4.51-3.12-4.51C1381.19,619.72,1380.06,621,1380.06,624.33z"/>
		<path class="st0" d="M1413.67,624.54v17.63c0,5.7-1.92,9.66-8.19,9.66c-5.79,0-7.85-3.89-7.85-9.59v-17.37
			c0-6.43,2.87-9.65,8.13-9.65C1410.91,615.22,1413.67,618.36,1413.67,624.54z M1402.49,624.33v18.4c0,3.04,0.93,4.6,3.18,4.6
			c2.14,0,3.1-1.44,3.1-4.75v-18.35c0-3.04-1.03-4.51-3.12-4.51C1403.62,619.72,1402.49,621,1402.49,624.33z"/>
		<path class="st0" d="M1436.1,624.54v17.63c0,5.7-1.92,9.66-8.19,9.66c-5.79,0-7.85-3.89-7.85-9.59v-17.37
			c0-6.43,2.87-9.65,8.13-9.65C1433.33,615.22,1436.1,618.36,1436.1,624.54z M1424.92,624.33v18.4c0,3.04,0.93,4.6,3.18,4.6
			c2.14,0,3.1-1.44,3.1-4.75v-18.35c0-3.04-1.03-4.51-3.12-4.51C1426.05,619.72,1424.92,621,1424.92,624.33z"/>
		<path class="st0" d="M1458.52,624.54v17.63c0,5.7-1.92,9.66-8.19,9.66c-5.79,0-7.85-3.89-7.85-9.59v-17.37
			c0-6.43,2.87-9.65,8.13-9.65C1455.76,615.22,1458.52,618.36,1458.52,624.54z M1447.34,624.33v18.4c0,3.04,0.93,4.6,3.18,4.6
			c2.14,0,3.1-1.44,3.1-4.75v-18.35c0-3.04-1.03-4.51-3.12-4.51C1448.47,619.72,1447.34,621,1447.34,624.33z"/>
		<path class="st0" d="M1480.95,624.54v17.63c0,5.7-1.92,9.66-8.19,9.66c-5.79,0-7.85-3.89-7.85-9.59v-17.37
			c0-6.43,2.87-9.65,8.13-9.65C1478.19,615.22,1480.95,618.36,1480.95,624.54z M1469.77,624.33v18.4c0,3.04,0.93,4.6,3.18,4.6
			c2.14,0,3.1-1.44,3.1-4.75v-18.35c0-3.04-1.03-4.51-3.12-4.51C1470.9,619.72,1469.77,621,1469.77,624.33z"/>
		<path class="st0" d="M1489.94,651.39v-30.03c-0.99,0.27-2.96,0.52-3.82,0.55v-3.78c2.2-0.3,4.18-1.52,5.16-2.67h3.59v35.93
			H1489.94z"/>
		<path class="st0" d="M1518.79,624.54v17.63c0,5.7-1.92,9.66-8.19,9.66c-5.79,0-7.85-3.89-7.85-9.59v-17.37
			c0-6.43,2.87-9.65,8.13-9.65C1516.02,615.22,1518.79,618.36,1518.79,624.54z M1507.6,624.33v18.4c0,3.04,0.93,4.6,3.18,4.6
			c2.14,0,3.1-1.44,3.1-4.75v-18.35c0-3.04-1.03-4.51-3.12-4.51C1508.74,619.72,1507.6,621,1507.6,624.33z"/>
		<path class="st0" d="M1541.21,624.54v17.63c0,5.7-1.92,9.66-8.19,9.66c-5.79,0-7.85-3.89-7.85-9.59v-17.37
			c0-6.43,2.87-9.65,8.13-9.65C1538.45,615.22,1541.21,618.36,1541.21,624.54z M1530.03,624.33v18.4c0,3.04,0.93,4.6,3.18,4.6
			c2.14,0,3.1-1.44,3.1-4.75v-18.35c0-3.04-1.03-4.51-3.12-4.51C1531.16,619.72,1530.03,621,1530.03,624.33z"/>
		<path class="st0" d="M1550.21,651.39v-30.03c-0.99,0.27-2.96,0.52-3.82,0.55v-3.78c2.2-0.3,4.18-1.52,5.16-2.67h3.59v35.93
			H1550.21z"/>
	</g>
	<g>
		<path class="st0" d="M1924.93,234.71v25.16c0,8.14-2.74,13.79-11.7,13.79c-8.26,0-11.21-5.55-11.21-13.69v-24.8
			c0-9.17,4.1-13.78,11.61-13.78C1920.98,221.4,1924.93,225.89,1924.93,234.71z M1908.96,234.4v26.27c0,4.34,1.33,6.56,4.53,6.56
			c3.05,0,4.43-2.06,4.43-6.78v-26.2c0-4.34-1.47-6.44-4.45-6.44C1910.58,227.82,1908.96,229.66,1908.96,234.4z"/>
		<path class="st0" d="M1956.94,234.71v25.16c0,8.14-2.74,13.79-11.7,13.79c-8.26,0-11.21-5.55-11.21-13.69v-24.8
			c0-9.17,4.1-13.78,11.61-13.78C1953,221.4,1956.94,225.89,1956.94,234.71z M1940.98,234.4v26.27c0,4.34,1.33,6.56,4.53,6.56
			c3.05,0,4.43-2.06,4.43-6.78v-26.2c0-4.34-1.47-6.44-4.45-6.44C1942.59,227.82,1940.98,229.66,1940.98,234.4z"/>
		<path class="st0" d="M1988.96,234.71v25.16c0,8.14-2.74,13.79-11.7,13.79c-8.26,0-11.21-5.55-11.21-13.69v-24.8
			c0-9.17,4.1-13.78,11.61-13.78C1985.01,221.4,1988.96,225.89,1988.96,234.71z M1973,234.4v26.27c0,4.34,1.33,6.56,4.53,6.56
			c3.05,0,4.43-2.06,4.43-6.78v-26.2c0-4.34-1.47-6.44-4.45-6.44C1974.61,227.82,1973,229.66,1973,234.4z"/>
		<path class="st0" d="M2020.98,234.71v25.16c0,8.14-2.74,13.79-11.7,13.79c-8.26,0-11.21-5.55-11.21-13.69v-24.8
			c0-9.17,4.1-13.78,11.61-13.78C2017.03,221.4,2020.98,225.89,2020.98,234.71z M2005.01,234.4v26.27c0,4.34,1.33,6.56,4.53,6.56
			c3.05,0,4.43-2.06,4.43-6.78v-26.2c0-4.34-1.47-6.44-4.45-6.44C2006.63,227.82,2005.01,229.66,2005.01,234.4z"/>
		<path class="st0" d="M2052.99,234.71v25.16c0,8.14-2.74,13.79-11.7,13.79c-8.26,0-11.21-5.55-11.21-13.69v-24.8
			c0-9.17,4.1-13.78,11.61-13.78C2049.05,221.4,2052.99,225.89,2052.99,234.71z M2037.03,234.4v26.27c0,4.34,1.33,6.56,4.53,6.56
			c3.05,0,4.43-2.06,4.43-6.78v-26.2c0-4.34-1.47-6.44-4.45-6.44C2038.65,227.82,2037.03,229.66,2037.03,234.4z"/>
		<path class="st0" d="M2085.01,234.71v25.16c0,8.14-2.74,13.79-11.7,13.79c-8.26,0-11.21-5.55-11.21-13.69v-24.8
			c0-9.17,4.1-13.78,11.61-13.78C2081.06,221.4,2085.01,225.89,2085.01,234.71z M2069.05,234.4v26.27c0,4.34,1.33,6.56,4.53,6.56
			c3.05,0,4.43-2.06,4.43-6.78v-26.2c0-4.34-1.47-6.44-4.45-6.44C2070.66,227.82,2069.05,229.66,2069.05,234.4z"/>
		<path class="st0" d="M2097.85,273.04v-42.87c-1.41,0.38-4.22,0.74-5.46,0.78v-5.4c3.14-0.42,5.97-2.17,7.37-3.81h5.12v51.29
			H2097.85z"/>
		<path class="st0" d="M2139.02,234.71v25.16c0,8.14-2.74,13.79-11.7,13.79c-8.26,0-11.21-5.55-11.21-13.69v-24.8
			c0-9.17,4.1-13.78,11.61-13.78C2135.07,221.4,2139.02,225.89,2139.02,234.71z M2123.06,234.4v26.27c0,4.34,1.33,6.56,4.53,6.56
			c3.05,0,4.43-2.06,4.43-6.78v-26.2c0-4.34-1.47-6.44-4.45-6.44C2124.67,227.82,2123.06,229.66,2123.06,234.4z"/>
		<path class="st0" d="M2171.04,234.71v25.16c0,8.14-2.74,13.79-11.7,13.79c-8.26,0-11.21-5.55-11.21-13.69v-24.8
			c0-9.17,4.1-13.78,11.61-13.78C2167.09,221.4,2171.04,225.89,2171.04,234.71z M2155.07,234.4v26.27c0,4.34,1.33,6.56,4.53,6.56
			c3.05,0,4.43-2.06,4.43-6.78v-26.2c0-4.34-1.47-6.44-4.45-6.44C2156.69,227.82,2155.07,229.66,2155.07,234.4z"/>
		<path class="st0" d="M2183.87,273.04v-42.87c-1.41,0.38-4.22,0.74-5.46,0.78v-5.4c3.14-0.42,5.97-2.17,7.37-3.81h5.12v51.29
			H2183.87z"/>
	</g>
	<g>
		<path class="st0" d="M2353.91,208.55v25.16c0,8.14-2.74,13.79-11.7,13.79c-8.26,0-11.21-5.55-11.21-13.69v-24.8
			c0-9.17,4.1-13.78,11.61-13.78C2349.97,195.24,2353.91,199.73,2353.91,208.55z M2337.95,208.25v26.27c0,4.34,1.32,6.56,4.53,6.56
			c3.05,0,4.43-2.06,4.43-6.78v-26.2c0-4.34-1.47-6.44-4.45-6.44C2339.56,201.66,2337.95,203.5,2337.95,208.25z"/>
		<path class="st0" d="M2385.93,208.55v25.16c0,8.14-2.74,13.79-11.7,13.79c-8.26,0-11.21-5.55-11.21-13.69v-24.8
			c0-9.17,4.1-13.78,11.61-13.78C2381.98,195.24,2385.93,199.73,2385.93,208.55z M2369.97,208.25v26.27c0,4.34,1.33,6.56,4.53,6.56
			c3.05,0,4.43-2.06,4.43-6.78v-26.2c0-4.34-1.47-6.44-4.45-6.44C2371.58,201.66,2369.97,203.5,2369.97,208.25z"/>
		<path class="st0" d="M2417.95,208.55v25.16c0,8.14-2.74,13.79-11.7,13.79c-8.26,0-11.21-5.55-11.21-13.69v-24.8
			c0-9.17,4.1-13.78,11.61-13.78C2414,195.24,2417.95,199.73,2417.95,208.55z M2401.98,208.25v26.27c0,4.34,1.33,6.56,4.53,6.56
			c3.05,0,4.43-2.06,4.43-6.78v-26.2c0-4.34-1.47-6.44-4.45-6.44C2403.6,201.66,2401.98,203.5,2401.98,208.25z"/>
		<path class="st0" d="M2449.96,208.55v25.16c0,8.14-2.74,13.79-11.7,13.79c-8.26,0-11.21-5.55-11.21-13.69v-24.8
			c0-9.17,4.1-13.78,11.61-13.78C2446.02,195.24,2449.96,199.73,2449.96,208.55z M2434,208.25v26.27c0,4.34,1.33,6.56,4.53,6.56
			c3.05,0,4.43-2.06,4.43-6.78v-26.2c0-4.34-1.47-6.44-4.45-6.44C2435.61,201.66,2434,203.5,2434,208.25z"/>
		<path class="st0" d="M2462.8,246.88v-42.87c-1.41,0.38-4.22,0.74-5.46,0.78v-5.4c3.14-0.42,5.97-2.17,7.37-3.81h5.12v51.29H2462.8
			z"/>
		<path class="st0" d="M2503.97,208.55v25.16c0,8.14-2.74,13.79-11.7,13.79c-8.26,0-11.21-5.55-11.21-13.69v-24.8
			c0-9.17,4.1-13.78,11.61-13.78C2500.03,195.24,2503.97,199.73,2503.97,208.55z M2488.01,208.25v26.27c0,4.34,1.32,6.56,4.53,6.56
			c3.05,0,4.43-2.06,4.43-6.78v-26.2c0-4.34-1.47-6.44-4.45-6.44C2489.62,201.66,2488.01,203.5,2488.01,208.25z"/>
		<path class="st0" d="M2535.99,208.55v25.16c0,8.14-2.74,13.79-11.7,13.79c-8.26,0-11.21-5.55-11.21-13.69v-24.8
			c0-9.17,4.1-13.78,11.61-13.78C2532.04,195.24,2535.99,199.73,2535.99,208.55z M2520.03,208.25v26.27c0,4.34,1.33,6.56,4.53,6.56
			c3.05,0,4.43-2.06,4.43-6.78v-26.2c0-4.34-1.47-6.44-4.45-6.44C2521.64,201.66,2520.03,203.5,2520.03,208.25z"/>
		<path class="st0" d="M2568.01,208.55v25.16c0,8.14-2.74,13.79-11.7,13.79c-8.26,0-11.21-5.55-11.21-13.69v-24.8
			c0-9.17,4.1-13.78,11.61-13.78C2564.06,195.24,2568.01,199.73,2568.01,208.55z M2552.04,208.25v26.27c0,4.34,1.32,6.56,4.53,6.56
			c3.05,0,4.43-2.06,4.43-6.78v-26.2c0-4.34-1.47-6.44-4.45-6.44C2553.66,201.66,2552.04,203.5,2552.04,208.25z"/>
		<path class="st0" d="M2600.02,208.55v25.16c0,8.14-2.74,13.79-11.7,13.79c-8.26,0-11.21-5.55-11.21-13.69v-24.8
			c0-9.17,4.1-13.78,11.61-13.78C2596.08,195.24,2600.02,199.73,2600.02,208.55z M2584.06,208.25v26.27c0,4.34,1.32,6.56,4.53,6.56
			c3.05,0,4.43-2.06,4.43-6.78v-26.2c0-4.34-1.47-6.44-4.45-6.44C2585.67,201.66,2584.06,203.5,2584.06,208.25z"/>
		<path class="st0" d="M2612.86,246.88v-42.87c-1.41,0.38-4.22,0.74-5.46,0.78v-5.4c3.14-0.42,5.97-2.17,7.37-3.81h5.12v51.29
			H2612.86z"/>
	</g>
	<g>
		<path class="st0" d="M2317.46,677.97v25.16c0,8.14-2.74,13.79-11.7,13.79c-8.26,0-11.21-5.55-11.21-13.69v-24.8
			c0-9.17,4.1-13.78,11.61-13.78C2313.51,664.66,2317.46,669.15,2317.46,677.97z M2301.49,677.67v26.27c0,4.34,1.32,6.56,4.53,6.56
			c3.05,0,4.43-2.06,4.43-6.78v-26.2c0-4.34-1.47-6.44-4.45-6.44C2303.11,671.08,2301.49,672.92,2301.49,677.67z"/>
		<path class="st0" d="M2349.47,677.97v25.16c0,8.14-2.74,13.79-11.7,13.79c-8.26,0-11.21-5.55-11.21-13.69v-24.8
			c0-9.17,4.1-13.78,11.61-13.78C2345.53,664.66,2349.47,669.15,2349.47,677.97z M2333.51,677.67v26.27c0,4.34,1.32,6.56,4.53,6.56
			c3.05,0,4.43-2.06,4.43-6.78v-26.2c0-4.34-1.47-6.44-4.45-6.44C2335.12,671.08,2333.51,672.92,2333.51,677.67z"/>
		<path class="st0" d="M2381.49,677.97v25.16c0,8.14-2.74,13.79-11.7,13.79c-8.26,0-11.21-5.55-11.21-13.69v-24.8
			c0-9.17,4.1-13.78,11.61-13.78C2377.54,664.66,2381.49,669.15,2381.49,677.97z M2365.53,677.67v26.27c0,4.34,1.33,6.56,4.53,6.56
			c3.05,0,4.43-2.06,4.43-6.78v-26.2c0-4.34-1.47-6.44-4.45-6.44C2367.14,671.08,2365.53,672.92,2365.53,677.67z"/>
		<path class="st0" d="M2413.51,677.97v25.16c0,8.14-2.74,13.79-11.7,13.79c-8.26,0-11.21-5.55-11.21-13.69v-24.8
			c0-9.17,4.1-13.78,11.61-13.78C2409.56,664.66,2413.51,669.15,2413.51,677.97z M2397.54,677.67v26.27c0,4.34,1.33,6.56,4.53,6.56
			c3.05,0,4.43-2.06,4.43-6.78v-26.2c0-4.34-1.47-6.44-4.45-6.44C2399.16,671.08,2397.54,672.92,2397.54,677.67z"/>
		<path class="st0" d="M2445.52,677.97v25.16c0,8.14-2.74,13.79-11.7,13.79c-8.26,0-11.21-5.55-11.21-13.69v-24.8
			c0-9.17,4.1-13.78,11.61-13.78C2441.58,664.66,2445.52,669.15,2445.52,677.97z M2429.56,677.67v26.27c0,4.34,1.33,6.56,4.53,6.56
			c3.05,0,4.43-2.06,4.43-6.78v-26.2c0-4.34-1.47-6.44-4.45-6.44C2431.18,671.08,2429.56,672.92,2429.56,677.67z"/>
		<path class="st0" d="M2477.54,677.97v25.16c0,8.14-2.74,13.79-11.7,13.79c-8.26,0-11.21-5.55-11.21-13.69v-24.8
			c0-9.17,4.1-13.78,11.61-13.78C2473.59,664.66,2477.54,669.15,2477.54,677.97z M2461.58,677.67v26.27c0,4.34,1.33,6.56,4.53,6.56
			c3.05,0,4.43-2.06,4.43-6.78v-26.2c0-4.34-1.47-6.44-4.45-6.44C2463.19,671.08,2461.58,672.92,2461.58,677.67z"/>
		<path class="st0" d="M2509.56,677.97v25.16c0,8.14-2.74,13.79-11.7,13.79c-8.26,0-11.21-5.55-11.21-13.69v-24.8
			c0-9.17,4.1-13.78,11.61-13.78C2505.61,664.66,2509.56,669.15,2509.56,677.97z M2493.59,677.67v26.27c0,4.34,1.33,6.56,4.53,6.56
			c3.05,0,4.43-2.06,4.43-6.78v-26.2c0-4.34-1.47-6.44-4.45-6.44C2495.21,671.08,2493.59,672.92,2493.59,677.67z"/>
		<path class="st0" d="M2541.57,677.97v25.16c0,8.14-2.74,13.79-11.7,13.79c-8.26,0-11.21-5.55-11.21-13.69v-24.8
			c0-9.17,4.1-13.78,11.61-13.78C2537.63,664.66,2541.57,669.15,2541.57,677.97z M2525.61,677.67v26.27c0,4.34,1.32,6.56,4.53,6.56
			c3.05,0,4.43-2.06,4.43-6.78v-26.2c0-4.34-1.47-6.44-4.45-6.44C2527.23,671.08,2525.61,672.92,2525.61,677.67z"/>
		<path class="st0" d="M2554.41,716.3v-42.87c-1.41,0.38-4.22,0.74-5.46,0.78v-5.4c3.14-0.42,5.97-2.17,7.37-3.81h5.12v51.29
			H2554.41z"/>
		<path class="st0" d="M2575.38,716.3v-42.87c-1.41,0.38-4.22,0.74-5.46,0.78v-5.4c3.14-0.42,5.97-2.17,7.37-3.81h5.12v51.29
			H2575.38z"/>
	</g>
	<g>
		<path class="st0" d="M831.04,1376.29v25.16c0,8.14-2.74,13.79-11.7,13.79c-8.26,0-11.21-5.55-11.21-13.69v-24.8
			c0-9.17,4.1-13.78,11.61-13.78C827.09,1362.98,831.04,1367.47,831.04,1376.29z M815.08,1375.98v26.27c0,4.34,1.33,6.56,4.53,6.56
			c3.05,0,4.43-2.06,4.43-6.78v-26.2c0-4.34-1.47-6.44-4.45-6.44C816.69,1369.4,815.08,1371.24,815.08,1375.98z"/>
		<path class="st0" d="M863.06,1376.29v25.16c0,8.14-2.74,13.79-11.7,13.79c-8.26,0-11.21-5.55-11.21-13.69v-24.8
			c0-9.17,4.1-13.78,11.61-13.78C859.11,1362.98,863.06,1367.47,863.06,1376.29z M847.09,1375.98v26.27c0,4.34,1.33,6.56,4.53,6.56
			c3.05,0,4.43-2.06,4.43-6.78v-26.2c0-4.34-1.47-6.44-4.45-6.44C848.71,1369.4,847.09,1371.24,847.09,1375.98z"/>
		<path class="st0" d="M895.07,1376.29v25.16c0,8.14-2.74,13.79-11.7,13.79c-8.26,0-11.21-5.55-11.21-13.69v-24.8
			c0-9.17,4.1-13.78,11.61-13.78C891.13,1362.98,895.07,1367.47,895.07,1376.29z M879.11,1375.98v26.27c0,4.34,1.33,6.56,4.53,6.56
			c3.05,0,4.43-2.06,4.43-6.78v-26.2c0-4.34-1.47-6.44-4.45-6.44C880.73,1369.4,879.11,1371.24,879.11,1375.98z"/>
		<path class="st0" d="M927.09,1376.29v25.16c0,8.14-2.74,13.79-11.7,13.79c-8.26,0-11.21-5.55-11.21-13.69v-24.8
			c0-9.17,4.1-13.78,11.61-13.78C923.14,1362.98,927.09,1367.47,927.09,1376.29z M911.13,1375.98v26.27c0,4.34,1.33,6.56,4.53,6.56
			c3.05,0,4.43-2.06,4.43-6.78v-26.2c0-4.34-1.47-6.44-4.45-6.44C912.74,1369.4,911.13,1371.24,911.13,1375.98z"/>
		<path class="st0" d="M959.11,1376.29v25.16c0,8.14-2.74,13.79-11.7,13.79c-8.26,0-11.21-5.55-11.21-13.69v-24.8
			c0-9.17,4.1-13.78,11.61-13.78C955.16,1362.98,959.11,1367.47,959.11,1376.29z M943.14,1375.98v26.27c0,4.34,1.33,6.56,4.53,6.56
			c3.05,0,4.43-2.06,4.43-6.78v-26.2c0-4.34-1.47-6.44-4.45-6.44C944.76,1369.4,943.14,1371.24,943.14,1375.98z"/>
		<path class="st0" d="M991.12,1376.29v25.16c0,8.14-2.74,13.79-11.7,13.79c-8.26,0-11.21-5.55-11.21-13.69v-24.8
			c0-9.17,4.1-13.78,11.61-13.78C987.18,1362.98,991.12,1367.47,991.12,1376.29z M975.16,1375.98v26.27c0,4.34,1.33,6.56,4.53,6.56
			c3.05,0,4.43-2.06,4.43-6.78v-26.2c0-4.34-1.47-6.44-4.45-6.44C976.78,1369.4,975.16,1371.24,975.16,1375.98z"/>
		<path class="st0" d="M1023.14,1376.29v25.16c0,8.14-2.74,13.79-11.7,13.79c-8.26,0-11.21-5.55-11.21-13.69v-24.8
			c0-9.17,4.1-13.78,11.61-13.78C1019.2,1362.98,1023.14,1367.47,1023.14,1376.29z M1007.18,1375.98v26.27
			c0,4.34,1.33,6.56,4.53,6.56c3.05,0,4.43-2.06,4.43-6.78v-26.2c0-4.34-1.47-6.44-4.45-6.44
			C1008.79,1369.4,1007.18,1371.24,1007.18,1375.98z"/>
		<path class="st0" d="M1035.98,1414.62v-42.87c-1.41,0.38-4.22,0.74-5.46,0.78v-5.4c3.14-0.42,5.97-2.17,7.37-3.81h5.12v51.29
			H1035.98z"/>
		<path class="st0" d="M1077.15,1376.29v25.16c0,8.14-2.74,13.79-11.7,13.79c-8.26,0-11.21-5.55-11.21-13.69v-24.8
			c0-9.17,4.1-13.78,11.61-13.78C1073.2,1362.98,1077.15,1367.47,1077.15,1376.29z M1061.19,1375.98v26.27
			c0,4.34,1.33,6.56,4.53,6.56c3.05,0,4.43-2.06,4.43-6.78v-26.2c0-4.34-1.47-6.44-4.45-6.44
			C1062.8,1369.4,1061.19,1371.24,1061.19,1375.98z"/>
		<path class="st0" d="M1089.99,1414.62v-42.87c-1.41,0.38-4.22,0.74-5.46,0.78v-5.4c3.14-0.42,5.97-2.17,7.37-3.81h5.12v51.29
			H1089.99z"/>
	</g>
	<g>
		<path class="st0" d="M1104.44,1284.07v25.16c0,8.14-2.74,13.79-11.7,13.79c-8.26,0-11.21-5.55-11.21-13.69v-24.8
			c0-9.17,4.1-13.78,11.61-13.78C1100.49,1270.76,1104.44,1275.25,1104.44,1284.07z M1088.47,1283.76v26.27
			c0,4.34,1.33,6.56,4.53,6.56c3.05,0,4.43-2.06,4.43-6.78v-26.2c0-4.34-1.47-6.44-4.45-6.44
			C1090.09,1277.18,1088.47,1279.02,1088.47,1283.76z"/>
		<path class="st0" d="M1136.45,1284.07v25.16c0,8.14-2.74,13.79-11.7,13.79c-8.26,0-11.21-5.55-11.21-13.69v-24.8
			c0-9.17,4.1-13.78,11.61-13.78C1132.51,1270.76,1136.45,1275.25,1136.45,1284.07z M1120.49,1283.76v26.27
			c0,4.34,1.33,6.56,4.53,6.56c3.05,0,4.43-2.06,4.43-6.78v-26.2c0-4.34-1.47-6.44-4.45-6.44
			C1122.11,1277.18,1120.49,1279.02,1120.49,1283.76z"/>
		<path class="st0" d="M1168.47,1284.07v25.16c0,8.14-2.74,13.79-11.7,13.79c-8.26,0-11.21-5.55-11.21-13.69v-24.8
			c0-9.17,4.1-13.78,11.61-13.78C1164.53,1270.76,1168.47,1275.25,1168.47,1284.07z M1152.51,1283.76v26.27
			c0,4.34,1.33,6.56,4.53,6.56c3.05,0,4.43-2.06,4.43-6.78v-26.2c0-4.34-1.47-6.44-4.45-6.44
			C1154.12,1277.18,1152.51,1279.02,1152.51,1283.76z"/>
		<path class="st0" d="M1200.49,1284.07v25.16c0,8.14-2.74,13.79-11.7,13.79c-8.26,0-11.21-5.55-11.21-13.69v-24.8
			c0-9.17,4.1-13.78,11.61-13.78C1196.54,1270.76,1200.49,1275.25,1200.49,1284.07z M1184.53,1283.76v26.27
			c0,4.34,1.33,6.56,4.53,6.56c3.05,0,4.43-2.06,4.43-6.78v-26.2c0-4.34-1.47-6.44-4.45-6.44
			C1186.14,1277.18,1184.53,1279.02,1184.53,1283.76z"/>
		<path class="st0" d="M1232.51,1284.07v25.16c0,8.14-2.74,13.79-11.7,13.79c-8.26,0-11.21-5.55-11.21-13.69v-24.8
			c0-9.17,4.1-13.78,11.61-13.78C1228.56,1270.76,1232.51,1275.25,1232.51,1284.07z M1216.54,1283.76v26.27
			c0,4.34,1.33,6.56,4.53,6.56c3.05,0,4.43-2.06,4.43-6.78v-26.2c0-4.34-1.47-6.44-4.45-6.44
			C1218.16,1277.18,1216.54,1279.02,1216.54,1283.76z"/>
		<path class="st0" d="M1264.52,1284.07v25.16c0,8.14-2.74,13.79-11.7,13.79c-8.26,0-11.21-5.55-11.21-13.69v-24.8
			c0-9.17,4.1-13.78,11.61-13.78C1260.58,1270.76,1264.52,1275.25,1264.52,1284.07z M1248.56,1283.76v26.27
			c0,4.34,1.33,6.56,4.53,6.56c3.05,0,4.43-2.06,4.43-6.78v-26.2c0-4.34-1.47-6.44-4.45-6.44
			C1250.17,1277.18,1248.56,1279.02,1248.56,1283.76z"/>
		<path class="st0" d="M1277.36,1322.4v-42.87c-1.41,0.38-4.22,0.74-5.46,0.78v-5.4c3.14-0.42,5.97-2.17,7.37-3.81h5.12v51.29
			H1277.36z"/>
		<path class="st0" d="M1318.53,1284.07v25.16c0,8.14-2.74,13.79-11.7,13.79c-8.26,0-11.21-5.55-11.21-13.69v-24.8
			c0-9.17,4.1-13.78,11.61-13.78C1314.59,1270.76,1318.53,1275.25,1318.53,1284.07z M1302.57,1283.76v26.27
			c0,4.34,1.33,6.56,4.53,6.56c3.05,0,4.43-2.06,4.43-6.78v-26.2c0-4.34-1.47-6.44-4.45-6.44
			C1304.18,1277.18,1302.57,1279.02,1302.57,1283.76z"/>
		<path class="st0" d="M1350.55,1284.07v25.16c0,8.14-2.74,13.79-11.7,13.79c-8.26,0-11.21-5.55-11.21-13.69v-24.8
			c0-9.17,4.1-13.78,11.61-13.78C1346.6,1270.76,1350.55,1275.25,1350.55,1284.07z M1334.59,1283.76v26.27
			c0,4.34,1.33,6.56,4.53,6.56c3.05,0,4.43-2.06,4.43-6.78v-26.2c0-4.34-1.47-6.44-4.45-6.44
			C1336.2,1277.18,1334.59,1279.02,1334.59,1283.76z"/>
		<path class="st0" d="M1363.39,1322.4v-42.87c-1.41,0.38-4.22,0.74-5.46,0.78v-5.4c3.14-0.42,5.97-2.17,7.37-3.81h5.12v51.29
			H1363.39z"/>
	</g>
	<g>
		<path class="st0" d="M1167.74,506.98v31.77c0,10.27-3.46,17.41-14.77,17.41c-10.43,0-14.15-7.01-14.15-17.28v-31.31
			c0-11.58,5.18-17.39,14.66-17.39C1162.76,490.17,1167.74,495.84,1167.74,506.98z M1147.59,506.59v33.17
			c0,5.48,1.67,8.29,5.72,8.29c3.85,0,5.59-2.6,5.59-8.55v-33.08c0-5.48-1.86-8.13-5.62-8.13
			C1149.63,498.28,1147.59,500.6,1147.59,506.59z"/>
		<path class="st0" d="M1208.16,506.98v31.77c0,10.27-3.46,17.41-14.77,17.41c-10.43,0-14.15-7.01-14.15-17.28v-31.31
			c0-11.58,5.18-17.39,14.66-17.39C1203.18,490.17,1208.16,495.84,1208.16,506.98z M1188.01,506.59v33.17
			c0,5.48,1.67,8.29,5.72,8.29c3.85,0,5.59-2.6,5.59-8.55v-33.08c0-5.48-1.86-8.13-5.62-8.13
			C1190.05,498.28,1188.01,500.6,1188.01,506.59z"/>
		<path class="st0" d="M1248.58,506.98v31.77c0,10.27-3.46,17.41-14.77,17.41c-10.43,0-14.15-7.01-14.15-17.28v-31.31
			c0-11.58,5.18-17.39,14.66-17.39C1243.59,490.17,1248.58,495.84,1248.58,506.98z M1228.43,506.59v33.17
			c0,5.48,1.67,8.29,5.72,8.29c3.85,0,5.59-2.6,5.59-8.55v-33.08c0-5.48-1.86-8.13-5.62-8.13
			C1230.46,498.28,1228.43,500.6,1228.43,506.59z"/>
		<path class="st0" d="M1288.99,506.98v31.77c0,10.27-3.46,17.41-14.77,17.41c-10.43,0-14.15-7.01-14.15-17.28v-31.31
			c0-11.58,5.18-17.39,14.66-17.39C1284.01,490.17,1288.99,495.84,1288.99,506.98z M1268.84,506.59v33.17
			c0,5.48,1.67,8.29,5.72,8.29c3.85,0,5.59-2.6,5.59-8.55v-33.08c0-5.48-1.86-8.13-5.62-8.13
			C1270.88,498.28,1268.84,500.6,1268.84,506.59z"/>
		<path class="st0" d="M1329.41,506.98v31.77c0,10.27-3.46,17.41-14.77,17.41c-10.43,0-14.15-7.01-14.15-17.28v-31.31
			c0-11.58,5.18-17.39,14.66-17.39C1324.43,490.17,1329.41,495.84,1329.41,506.98z M1309.26,506.59v33.17
			c0,5.48,1.67,8.29,5.72,8.29c3.85,0,5.59-2.6,5.59-8.55v-33.08c0-5.48-1.86-8.13-5.62-8.13
			C1311.3,498.28,1309.26,500.6,1309.26,506.59z"/>
		<path class="st0" d="M1369.83,506.98v31.77c0,10.27-3.46,17.41-14.77,17.41c-10.43,0-14.15-7.01-14.15-17.28v-31.31
			c0-11.58,5.18-17.39,14.66-17.39C1364.84,490.17,1369.83,495.84,1369.83,506.98z M1349.68,506.59v33.17
			c0,5.48,1.67,8.29,5.72,8.29c3.85,0,5.59-2.6,5.59-8.55v-33.08c0-5.48-1.86-8.13-5.62-8.13
			C1351.71,498.28,1349.68,500.6,1349.68,506.59z"/>
		<path class="st0" d="M1386.03,555.36v-54.11c-1.78,0.48-5.33,0.94-6.89,0.99v-6.81c3.96-0.53,7.54-2.74,9.3-4.81h6.46v64.75
			H1386.03z"/>
		<path class="st0" d="M1438,506.98v31.77c0,10.27-3.46,17.41-14.77,17.41c-10.43,0-14.15-7.01-14.15-17.28v-31.31
			c0-11.58,5.18-17.39,14.66-17.39C1433.02,490.17,1438,495.84,1438,506.98z M1417.85,506.59v33.17c0,5.48,1.67,8.29,5.72,8.29
			c3.85,0,5.59-2.6,5.59-8.55v-33.08c0-5.48-1.86-8.13-5.62-8.13C1419.89,498.28,1417.85,500.6,1417.85,506.59z"/>
		<path class="st0" d="M1478.42,506.98v31.77c0,10.27-3.46,17.41-14.77,17.41c-10.43,0-14.15-7.01-14.15-17.28v-31.31
			c0-11.58,5.18-17.39,14.66-17.39C1473.44,490.17,1478.42,495.84,1478.42,506.98z M1458.27,506.59v33.17
			c0,5.48,1.67,8.29,5.72,8.29c3.85,0,5.59-2.6,5.59-8.55v-33.08c0-5.48-1.86-8.13-5.62-8.13
			C1460.31,498.28,1458.27,500.6,1458.27,506.59z"/>
		<path class="st0" d="M1494.63,555.36v-54.11c-1.78,0.48-5.33,0.94-6.89,0.99v-6.81c3.96-0.53,7.54-2.74,9.3-4.81h6.47v64.75
			H1494.63z"/>
	</g>
	<g>
		<path class="st0" d="M1250.64,754.71v31.77c0,10.27-3.46,17.41-14.77,17.41c-10.43,0-14.15-7.01-14.15-17.28v-31.31
			c0-11.58,5.18-17.39,14.66-17.39C1245.66,737.9,1250.64,743.57,1250.64,754.71z M1230.49,754.32v33.17c0,5.48,1.67,8.29,5.72,8.29
			c3.85,0,5.59-2.6,5.59-8.55v-33.08c0-5.48-1.86-8.13-5.62-8.13C1232.53,746.01,1230.49,748.33,1230.49,754.32z"/>
		<path class="st0" d="M1291.06,754.71v31.77c0,10.27-3.46,17.41-14.77,17.41c-10.43,0-14.15-7.01-14.15-17.28v-31.31
			c0-11.58,5.18-17.39,14.66-17.39C1286.08,737.9,1291.06,743.57,1291.06,754.71z M1270.91,754.32v33.17c0,5.48,1.67,8.29,5.72,8.29
			c3.85,0,5.59-2.6,5.59-8.55v-33.08c0-5.48-1.86-8.13-5.62-8.13C1272.95,746.01,1270.91,748.33,1270.91,754.32z"/>
		<path class="st0" d="M1331.48,754.71v31.77c0,10.27-3.46,17.41-14.77,17.41c-10.43,0-14.15-7.01-14.15-17.28v-31.31
			c0-11.58,5.18-17.39,14.66-17.39C1326.49,737.9,1331.48,743.57,1331.48,754.71z M1311.33,754.32v33.17c0,5.48,1.67,8.29,5.72,8.29
			c3.85,0,5.59-2.6,5.59-8.55v-33.08c0-5.48-1.86-8.13-5.62-8.13C1313.36,746.01,1311.33,748.33,1311.33,754.32z"/>
		<path class="st0" d="M1371.89,754.71v31.77c0,10.27-3.46,17.41-14.77,17.41c-10.43,0-14.15-7.01-14.15-17.28v-31.31
			c0-11.58,5.18-17.39,14.66-17.39C1366.91,737.9,1371.89,743.57,1371.89,754.71z M1351.74,754.32v33.17c0,5.48,1.67,8.29,5.72,8.29
			c3.85,0,5.59-2.6,5.59-8.55v-33.08c0-5.48-1.86-8.13-5.62-8.13C1353.78,746.01,1351.74,748.33,1351.74,754.32z"/>
		<path class="st0" d="M1388.1,803.09v-54.11c-1.78,0.48-5.33,0.94-6.89,0.99v-6.81c3.96-0.53,7.54-2.74,9.3-4.81h6.46v64.75H1388.1
			z"/>
		<path class="st0" d="M1440.07,754.71v31.77c0,10.27-3.46,17.41-14.77,17.41c-10.43,0-14.15-7.01-14.15-17.28v-31.31
			c0-11.58,5.18-17.39,14.66-17.39C1435.09,737.9,1440.07,743.57,1440.07,754.71z M1419.92,754.32v33.17c0,5.48,1.67,8.29,5.72,8.29
			c3.85,0,5.59-2.6,5.59-8.55v-33.08c0-5.48-1.86-8.13-5.62-8.13C1421.96,746.01,1419.92,748.33,1419.92,754.32z"/>
		<path class="st0" d="M1480.49,754.71v31.77c0,10.27-3.46,17.41-14.77,17.41c-10.43,0-14.15-7.01-14.15-17.28v-31.31
			c0-11.58,5.18-17.39,14.66-17.39C1475.51,737.9,1480.49,743.57,1480.49,754.71z M1460.34,754.32v33.17c0,5.48,1.67,8.29,5.72,8.29
			c3.85,0,5.59-2.6,5.59-8.55v-33.08c0-5.48-1.86-8.13-5.62-8.13C1462.38,746.01,1460.34,748.33,1460.34,754.32z"/>
		<path class="st0" d="M1520.9,754.71v31.77c0,10.27-3.46,17.41-14.77,17.41c-10.43,0-14.15-7.01-14.15-17.28v-31.31
			c0-11.58,5.18-17.39,14.66-17.39C1515.92,737.9,1520.9,743.57,1520.9,754.71z M1500.75,754.32v33.17c0,5.48,1.67,8.29,5.72,8.29
			c3.85,0,5.59-2.6,5.59-8.55v-33.08c0-5.48-1.86-8.13-5.62-8.13C1502.79,746.01,1500.75,748.33,1500.75,754.32z"/>
		<path class="st0" d="M1561.32,754.71v31.77c0,10.27-3.46,17.41-14.77,17.41c-10.43,0-14.15-7.01-14.15-17.28v-31.31
			c0-11.58,5.18-17.39,14.66-17.39C1556.34,737.9,1561.32,743.57,1561.32,754.71z M1541.17,754.32v33.17c0,5.48,1.67,8.29,5.72,8.29
			c3.85,0,5.59-2.6,5.59-8.55v-33.08c0-5.48-1.86-8.13-5.62-8.13C1543.21,746.01,1541.17,748.33,1541.17,754.32z"/>
		<path class="st0" d="M1577.53,803.09v-54.11c-1.78,0.48-5.33,0.94-6.89,0.99v-6.81c3.96-0.53,7.54-2.74,9.3-4.81h6.47v64.75
			H1577.53z"/>
	</g>
	<g>
		<path class="st0" d="M2316,65.49v31.77c0,10.27-3.46,17.41-14.77,17.41c-10.43,0-14.15-7.01-14.15-17.28V66.08
			c0-11.58,5.18-17.39,14.66-17.39C2311.02,48.69,2316,54.36,2316,65.49z M2295.85,65.11v33.17c0,5.48,1.67,8.29,5.72,8.29
			c3.85,0,5.59-2.6,5.59-8.55V64.93c0-5.48-1.86-8.13-5.62-8.13C2297.89,56.8,2295.85,59.12,2295.85,65.11z"/>
		<path class="st0" d="M2356.42,65.49v31.77c0,10.27-3.46,17.41-14.77,17.41c-10.43,0-14.15-7.01-14.15-17.28V66.08
			c0-11.58,5.18-17.39,14.66-17.39C2351.44,48.69,2356.42,54.36,2356.42,65.49z M2336.27,65.11v33.17c0,5.48,1.67,8.29,5.72,8.29
			c3.85,0,5.59-2.6,5.59-8.55V64.93c0-5.48-1.86-8.13-5.62-8.13C2338.31,56.8,2336.27,59.12,2336.27,65.11z"/>
		<path class="st0" d="M2396.83,65.49v31.77c0,10.27-3.46,17.41-14.77,17.41c-10.43,0-14.15-7.01-14.15-17.28V66.08
			c0-11.58,5.18-17.39,14.66-17.39C2391.85,48.69,2396.83,54.36,2396.83,65.49z M2376.68,65.11v33.17c0,5.48,1.67,8.29,5.72,8.29
			c3.85,0,5.59-2.6,5.59-8.55V64.93c0-5.48-1.86-8.13-5.62-8.13C2378.72,56.8,2376.68,59.12,2376.68,65.11z"/>
		<path class="st0" d="M2437.25,65.49v31.77c0,10.27-3.46,17.41-14.77,17.41c-10.43,0-14.15-7.01-14.15-17.28V66.08
			c0-11.58,5.18-17.39,14.66-17.39C2432.27,48.69,2437.25,54.36,2437.25,65.49z M2417.1,65.11v33.17c0,5.48,1.67,8.29,5.72,8.29
			c3.85,0,5.59-2.6,5.59-8.55V64.93c0-5.48-1.86-8.13-5.62-8.13C2419.14,56.8,2417.1,59.12,2417.1,65.11z"/>
		<path class="st0" d="M2477.67,65.49v31.77c0,10.27-3.46,17.41-14.77,17.41c-10.43,0-14.15-7.01-14.15-17.28V66.08
			c0-11.58,5.18-17.39,14.66-17.39C2472.69,48.69,2477.67,54.36,2477.67,65.49z M2457.52,65.11v33.17c0,5.48,1.67,8.29,5.72,8.29
			c3.85,0,5.59-2.6,5.59-8.55V64.93c0-5.48-1.86-8.13-5.62-8.13C2459.56,56.8,2457.52,59.12,2457.52,65.11z"/>
		<path class="st0" d="M2518.08,65.49v31.77c0,10.27-3.46,17.41-14.77,17.41c-10.43,0-14.15-7.01-14.15-17.28V66.08
			c0-11.58,5.18-17.39,14.66-17.39C2513.1,48.69,2518.08,54.36,2518.08,65.49z M2497.93,65.11v33.17c0,5.48,1.67,8.29,5.72,8.29
			c3.85,0,5.59-2.6,5.59-8.55V64.93c0-5.48-1.86-8.13-5.62-8.13C2499.97,56.8,2497.93,59.12,2497.93,65.11z"/>
		<path class="st0" d="M2558.5,65.49v31.77c0,10.27-3.46,17.41-14.77,17.41c-10.43,0-14.15-7.01-14.15-17.28V66.08
			c0-11.58,5.18-17.39,14.66-17.39C2553.52,48.69,2558.5,54.36,2558.5,65.49z M2538.35,65.11v33.17c0,5.48,1.67,8.29,5.72,8.29
			c3.85,0,5.59-2.6,5.59-8.55V64.93c0-5.48-1.86-8.13-5.62-8.13C2540.39,56.8,2538.35,59.12,2538.35,65.11z"/>
		<path class="st0" d="M2598.92,65.49v31.77c0,10.27-3.46,17.41-14.77,17.41c-10.43,0-14.15-7.01-14.15-17.28V66.08
			c0-11.58,5.18-17.39,14.66-17.39C2593.94,48.69,2598.92,54.36,2598.92,65.49z M2578.77,65.11v33.17c0,5.48,1.67,8.29,5.72,8.29
			c3.85,0,5.59-2.6,5.59-8.55V64.93c0-5.48-1.86-8.13-5.62-8.13C2580.81,56.8,2578.77,59.12,2578.77,65.11z"/>
		<path class="st0" d="M2615.12,113.88V59.76c-1.78,0.48-5.33,0.94-6.89,0.99v-6.81c3.96-0.53,7.54-2.74,9.3-4.81h6.47v64.75
			H2615.12z"/>
		<path class="st0" d="M2641.6,113.88V59.76c-1.78,0.48-5.33,0.94-6.89,0.99v-6.81c3.96-0.53,7.54-2.74,9.3-4.81h6.47v64.75H2641.6z
			"/>
	</g>
	<g>
		<path class="st0" d="M684.84,971.31v31.77c0,10.27-3.46,17.41-14.77,17.41c-10.43,0-14.15-7.01-14.15-17.28v-31.31
			c0-11.58,5.18-17.39,14.66-17.39C679.86,954.5,684.84,960.17,684.84,971.31z M664.69,970.92v33.17c0,5.48,1.67,8.29,5.72,8.29
			c3.85,0,5.59-2.6,5.59-8.55v-33.08c0-5.48-1.86-8.13-5.62-8.13C666.73,962.61,664.69,964.93,664.69,970.92z"/>
		<path class="st0" d="M725.26,971.31v31.77c0,10.27-3.46,17.41-14.77,17.41c-10.43,0-14.15-7.01-14.15-17.28v-31.31
			c0-11.58,5.18-17.39,14.66-17.39C720.28,954.5,725.26,960.17,725.26,971.31z M705.11,970.92v33.17c0,5.48,1.67,8.29,5.72,8.29
			c3.85,0,5.59-2.6,5.59-8.55v-33.08c0-5.48-1.86-8.13-5.62-8.13C707.15,962.61,705.11,964.93,705.11,970.92z"/>
		<path class="st0" d="M765.68,971.31v31.77c0,10.27-3.46,17.41-14.77,17.41c-10.43,0-14.15-7.01-14.15-17.28v-31.31
			c0-11.58,5.18-17.39,14.66-17.39C760.7,954.5,765.68,960.17,765.68,971.31z M745.53,970.92v33.17c0,5.48,1.67,8.29,5.72,8.29
			c3.85,0,5.59-2.6,5.59-8.55v-33.08c0-5.48-1.86-8.13-5.62-8.13C747.57,962.61,745.53,964.93,745.53,970.92z"/>
		<path class="st0" d="M806.09,971.31v31.77c0,10.27-3.46,17.41-14.77,17.41c-10.43,0-14.15-7.01-14.15-17.28v-31.31
			c0-11.58,5.18-17.39,14.66-17.39C801.11,954.5,806.09,960.17,806.09,971.31z M785.94,970.92v33.17c0,5.48,1.67,8.29,5.72,8.29
			c3.85,0,5.59-2.6,5.59-8.55v-33.08c0-5.48-1.86-8.13-5.62-8.13C787.98,962.61,785.94,964.93,785.94,970.92z"/>
		<path class="st0" d="M846.51,971.31v31.77c0,10.27-3.46,17.41-14.77,17.41c-10.43,0-14.15-7.01-14.15-17.28v-31.31
			c0-11.58,5.18-17.39,14.66-17.39C841.53,954.5,846.51,960.17,846.51,971.31z M826.36,970.92v33.17c0,5.48,1.67,8.29,5.72,8.29
			c3.85,0,5.59-2.6,5.59-8.55v-33.08c0-5.48-1.86-8.13-5.62-8.13C828.4,962.61,826.36,964.93,826.36,970.92z"/>
		<path class="st0" d="M886.93,971.31v31.77c0,10.27-3.46,17.41-14.77,17.41c-10.43,0-14.15-7.01-14.15-17.28v-31.31
			c0-11.58,5.18-17.39,14.66-17.39C881.95,954.5,886.93,960.17,886.93,971.31z M866.78,970.92v33.17c0,5.48,1.67,8.29,5.72,8.29
			c3.85,0,5.59-2.6,5.59-8.55v-33.08c0-5.48-1.86-8.13-5.62-8.13C868.82,962.61,866.78,964.93,866.78,970.92z"/>
		<path class="st0" d="M927.34,971.31v31.77c0,10.27-3.46,17.41-14.77,17.41c-10.43,0-14.15-7.01-14.15-17.28v-31.31
			c0-11.58,5.18-17.39,14.66-17.39C922.36,954.5,927.34,960.17,927.34,971.31z M907.19,970.92v33.17c0,5.48,1.67,8.29,5.72,8.29
			c3.85,0,5.59-2.6,5.59-8.55v-33.08c0-5.48-1.86-8.13-5.62-8.13C909.23,962.61,907.19,964.93,907.19,970.92z"/>
		<path class="st0" d="M943.55,1019.69v-54.11c-1.78,0.48-5.33,0.94-6.89,0.99v-6.81c3.96-0.53,7.54-2.74,9.3-4.81h6.47v64.75
			H943.55z"/>
		<path class="st0" d="M995.52,971.31v31.77c0,10.27-3.46,17.41-14.77,17.41c-10.43,0-14.15-7.01-14.15-17.28v-31.31
			c0-11.58,5.18-17.39,14.66-17.39C990.54,954.5,995.52,960.17,995.52,971.31z M975.37,970.92v33.17c0,5.48,1.67,8.29,5.72,8.29
			c3.85,0,5.59-2.6,5.59-8.55v-33.08c0-5.48-1.86-8.13-5.62-8.13C977.41,962.61,975.37,964.93,975.37,970.92z"/>
		<path class="st0" d="M1011.73,1019.69v-54.11c-1.78,0.48-5.33,0.94-6.89,0.99v-6.81c3.96-0.53,7.54-2.74,9.3-4.81h6.46v64.75
			H1011.73z"/>
	</g>
	<g>
		<path class="st0" d="M665.72,686.73v31.77c0,10.27-3.46,17.41-14.77,17.41c-10.43,0-14.15-7.01-14.15-17.28v-31.31
			c0-11.58,5.18-17.39,14.66-17.39C660.74,669.92,665.72,675.6,665.72,686.73z M645.57,686.34v33.17c0,5.48,1.67,8.29,5.72,8.29
			c3.85,0,5.59-2.6,5.59-8.55v-33.08c0-5.48-1.86-8.13-5.62-8.13C647.6,678.03,645.57,680.35,645.57,686.34z"/>
		<path class="st0" d="M706.13,686.73v31.77c0,10.27-3.46,17.41-14.77,17.41c-10.43,0-14.15-7.01-14.15-17.28v-31.31
			c0-11.58,5.18-17.39,14.66-17.39C701.15,669.92,706.13,675.6,706.13,686.73z M685.98,686.34v33.17c0,5.48,1.67,8.29,5.72,8.29
			c3.85,0,5.59-2.6,5.59-8.55v-33.08c0-5.48-1.86-8.13-5.62-8.13C688.02,678.03,685.98,680.35,685.98,686.34z"/>
		<path class="st0" d="M746.55,686.73v31.77c0,10.27-3.46,17.41-14.77,17.41c-10.43,0-14.15-7.01-14.15-17.28v-31.31
			c0-11.58,5.18-17.39,14.66-17.39C741.57,669.92,746.55,675.6,746.55,686.73z M726.4,686.34v33.17c0,5.48,1.67,8.29,5.72,8.29
			c3.85,0,5.59-2.6,5.59-8.55v-33.08c0-5.48-1.86-8.13-5.62-8.13C728.44,678.03,726.4,680.35,726.4,686.34z"/>
		<path class="st0" d="M786.97,686.73v31.77c0,10.27-3.46,17.41-14.77,17.41c-10.43,0-14.15-7.01-14.15-17.28v-31.31
			c0-11.58,5.18-17.39,14.66-17.39C781.99,669.92,786.97,675.6,786.97,686.73z M766.82,686.34v33.17c0,5.48,1.67,8.29,5.72,8.29
			c3.85,0,5.59-2.6,5.59-8.55v-33.08c0-5.48-1.86-8.13-5.62-8.13C768.85,678.03,766.82,680.35,766.82,686.34z"/>
		<path class="st0" d="M827.38,686.73v31.77c0,10.27-3.46,17.41-14.77,17.41c-10.43,0-14.15-7.01-14.15-17.28v-31.31
			c0-11.58,5.18-17.39,14.66-17.39C822.4,669.92,827.38,675.6,827.38,686.73z M807.23,686.34v33.17c0,5.48,1.67,8.29,5.72,8.29
			c3.85,0,5.59-2.6,5.59-8.55v-33.08c0-5.48-1.86-8.13-5.62-8.13C809.27,678.03,807.23,680.35,807.23,686.34z"/>
		<path class="st0" d="M867.8,686.73v31.77c0,10.27-3.46,17.41-14.77,17.41c-10.43,0-14.15-7.01-14.15-17.28v-31.31
			c0-11.58,5.18-17.39,14.66-17.39C862.82,669.92,867.8,675.6,867.8,686.73z M847.65,686.34v33.17c0,5.48,1.67,8.29,5.72,8.29
			c3.85,0,5.59-2.6,5.59-8.55v-33.08c0-5.48-1.86-8.13-5.62-8.13C849.69,678.03,847.65,680.35,847.65,686.34z"/>
		<path class="st0" d="M884.01,735.11V681c-1.78,0.48-5.33,0.94-6.89,0.99v-6.81c3.96-0.53,7.54-2.74,9.3-4.81h6.47v64.75H884.01z"
			/>
		<path class="st0" d="M935.98,686.73v31.77c0,10.27-3.46,17.41-14.77,17.41c-10.43,0-14.15-7.01-14.15-17.28v-31.31
			c0-11.58,5.18-17.39,14.66-17.39C931,669.92,935.98,675.6,935.98,686.73z M915.83,686.34v33.17c0,5.48,1.67,8.29,5.72,8.29
			c3.85,0,5.59-2.6,5.59-8.55v-33.08c0-5.48-1.86-8.13-5.62-8.13C917.87,678.03,915.83,680.35,915.83,686.34z"/>
		<path class="st0" d="M976.4,686.73v31.77c0,10.27-3.46,17.41-14.77,17.41c-10.43,0-14.15-7.01-14.15-17.28v-31.31
			c0-11.58,5.18-17.39,14.66-17.39C971.41,669.92,976.4,675.6,976.4,686.73z M956.25,686.34v33.17c0,5.48,1.67,8.29,5.72,8.29
			c3.85,0,5.59-2.6,5.59-8.55v-33.08c0-5.48-1.86-8.13-5.62-8.13C958.28,678.03,956.25,680.35,956.25,686.34z"/>
		<path class="st0" d="M992.6,735.11V681c-1.78,0.48-5.33,0.94-6.89,0.99v-6.81c3.96-0.53,7.54-2.74,9.3-4.81h6.46v64.75H992.6z"/>
	</g>
</g>
<g>
	<path class="st1" d="M1452.88,1520c-0.01,4.93-0.16,8.09-0.21,9.06h795.45c-0.06-1.72-0.22-7.56-0.14-16.65
		c2.44-121.7,30.3-211.81,43.14-247.18c4.91,7.4,11.13,16.78,17.53,26.36l1.78-1.19l-1.62,1.46l0.31,0.43
		c4.89,7.32,9.87,14.78,14.47,21.61c10.08,16.03,18.39,31.42,24.12,44.68c-12.51,70.93,15.64,151.07,23.08,170.48h216.19
		c1.37-9.32,6.89-48.17,9.8-88.28c6.28-86.26-4.26-104.98-14.14-111.66c-1.41-0.95-2.78-1.98-4.16-3.14
		c-13.85-13.57-17.4-29.4-17.63-30.51c-0.8-4.09-0.84-6.8-0.84-6.8l0-0.9l-0.17-0.88c-0.48-2.48-0.98-4.94-1.47-7.33
		c-0.01-0.04-0.19-0.99-0.57-2.71c-12.98-61.83-34.7-124.59-64.56-186.51c-46.18-100.2-104.71-185.02-173.95-252.11l-1.32-1.28
		l-1.71-0.69c-55.89-22.42-111.92-36.93-149.08-45.15c-21.03-4.65-38.39-7.83-49.25-9.68c-1.06-0.18-2.08-0.35-3.06-0.51
		c50.24-66.87,86.12-134.07,38.29-182.67c-4.69-16.99-33.38-117.89-80.18-217.56c-30.15-64.22-61.87-115.49-94.27-152.4
		c-41.63-47.42-84.8-71.46-128.31-71.46c-43.51,0-86.68,24.04-128.31,71.46c-32.4,36.9-64.11,88.18-94.27,152.4
		c-46.8,99.67-75.49,200.57-80.18,217.56c-48.11,48.88-11.52,116.59,39.17,183.85c-30.9,7.3-110.04,24.41-199.25,31.35
		c-4.12,0.1-43.93,1.42-103.85,16.27c-3.61,0.37-17.47,2.12-29.68,8.07c-7.65,2.26-15.33,4.67-22.85,7.18l-0.27,0.09l-0.26,0.11
		c-19.93,8-38.85,15.42-56.31,22.08c0.23-39.43,7.82-85.8,15.94-116.82c3.78-14.43,4.1-28.69,4.1-43.24v-53.89
		c0-24.92-4-41.79-12.18-51.52c-0.03-0.04-0.18-0.22-0.18-0.22l-0.09-0.1c-6.31-7.39-13.26-8.49-16.85-8.49
		c-0.43,0-0.83,0.02-1.19,0.04c-0.83-0.09-1.66-0.13-2.48-0.13c-6.22,0-15.13,2.51-22.31,14.44c-8.22,13.26-13.08,36.98-14.46,70.46
		c-0.76,16.49-0.45,29.9-0.33,33.63l-7.69,44.31c-0.24,0.99-0.48,1.95-0.71,2.89l-6.72-5.11c-1.07-0.99-2.23-1.86-3.47-2.61
		c-1.78-1.18-6.24-3.53-13.7-3.53c-0.87,0-1.77,0.03-2.68,0.1l-0.41,0l-0.11,0.02c-1.25,0.03-2.57,0.09-3.94,0.15
		c-4.04,0.14-7.15,0.22-8.01,0.24c-0.1,0-0.21,0-0.34,0c-0.77,0-2.01,0.04-3.57,0.24c-4,0.47-7.82,1.68-11.36,3.59
		c-0.16,0.08-0.32,0.17-0.47,0.25c0,0-0.23,0.13-0.29,0.16c-5.83,3.23-10.54,8.05-14.02,14.31c-2.13,3.6-3.15,6.41-3.34,6.94
		l-0.22,0.62l-0.13,0.64c-0.01,0.05-0.11,0.52-0.27,1.27c-0.27,0.88-0.51,1.79-0.74,2.71c-2.37-3.05-5.3-5.56-8.77-7.5l0,0
		c-0.79-0.48-8.02-4.73-18.96-4.73c-4.69,0-9.41,0.78-14.05,2.3c-14.46,4.76-23.68,16.33-26.15,27.32
		c-2.44-1.88-5.33-3.37-8.63-4.45c-4.68-1.73-9.88-2.61-15.46-2.61c-5.04,0-10.44,0.73-16.05,2.16
		c-11.22,2.86-19.55,10.09-24.09,20.89c-5.23,12.45-4.19,27.11-1.21,35.54c-2.09,11.1-8.1,50.52-0.2,103.38
		c3.68,26.57,10.5,52.45,20.27,76.99c-0.05,1.78-0.07,3.47-0.07,5.12c0,20.64,3.3,40.74,9.8,59.76
		c8.15,103.76,46.68,217.39,82.7,243.63c19.99,14.56,43.69,22.26,68.54,22.26c12.94,0,25.75-2.12,38.09-6.29
		c20.22-6.83,58.45-26.62,75.15-50.67l48.08-65.04c3.68-1.97,8.52-2.97,14.4-2.97c6.92,0,14.95,1.38,23.87,4.1
		c15.12,5.7,25.09,10.32,29.76,12.61c16.65,8.86,32.71,20.21,46.7,32.99l2.64,3.04c55.36,63.77,74.79,137.59,81.34,188.32
		C1451.55,1489.42,1452.58,1504.65,1452.88,1520z"/>
	<linearGradient id="SVGID_1_" gradientUnits="userSpaceOnUse" x1="2082.3452" y1="1529.7479" x2="2082.3452" y2="787.7784">
		<stop  offset="0" style="stop-color:#05090D"/>
		<stop  offset="0.6292" style="stop-color:#050E16"/>
		<stop  offset="0.8293" style="stop-color:#05101A"/>
		<stop  offset="0.8775" style="stop-color:#0A1723"/>
		<stop  offset="0.9576" style="stop-color:#172B3D"/>
		<stop  offset="1" style="stop-color:#1F374D"/>
	</linearGradient>
	<path class="st2" d="M2097.82,787.78c0,0,107.9,14.24,214.95,57.18c0,0-53.52,228.26-23.79,400.02c0,0-50.55,113-50.55,284.76
		h-386.5v-348.64C1851.93,1181.11,1865.03,988.99,2097.82,787.78z"/>
	
		<linearGradient id="SVGID_00000060737650759310865980000001577226041209239466_" gradientUnits="userSpaceOnUse" x1="1612.583" y1="1529.7479" x2="1612.583" y2="787.7784">
		<stop  offset="0" style="stop-color:#05090D"/>
		<stop  offset="0.6292" style="stop-color:#050E16"/>
		<stop  offset="0.8293" style="stop-color:#05101A"/>
		<stop  offset="0.8775" style="stop-color:#0A1723"/>
		<stop  offset="0.9576" style="stop-color:#172B3D"/>
		<stop  offset="1" style="stop-color:#1F374D"/>
	</linearGradient>
	<path style="fill:url(#SVGID_00000060737650759310865980000001577226041209239466_);" d="M1602.98,787.78
		c0,0-98.31,25.99-214.95,35.03c0,0,18,285.72-11.74,457.48c0,0,86.07,77.7,86.07,249.46h386.5v-348.64
		C1848.87,1181.11,1835.77,988.99,1602.98,787.78z"/>
	
		<linearGradient id="SVGID_00000174572992707542898490000012470152015935937188_" gradientUnits="userSpaceOnUse" x1="2433.5215" y1="1529.7479" x2="2433.5215" y2="844.9628">
		<stop  offset="0" style="stop-color:#05090D"/>
		<stop  offset="0.3445" style="stop-color:#091016"/>
		<stop  offset="0.9047" style="stop-color:#12212E"/>
		<stop  offset="1" style="stop-color:#142533"/>
	</linearGradient>
	<path style="fill:url(#SVGID_00000174572992707542898490000012470152015935937188_);" d="M2312.76,844.96
		c0,0,187.32,184.57,237.87,443.72c0,0,0,30.13,26.76,48.21c26.76,18.08,0,192.85,0,192.85h-196.25c0,0-38.65-93.41-23.79-171.76
		c0,0-2.2-14.69-11.89-28.63c-15.2-21.84-56.49-84.37-56.49-84.37S2251.81,1014.46,2312.76,844.96z"/>
	<rect x="1838.69" y="1127.84" class="st5" width="23.41" height="401.91"/>
	
		<radialGradient id="SVGID_00000062177322157865396550000013774082046999690670_" cx="1850.3983" cy="-2005.7754" r="298.4697" gradientTransform="matrix(1 0 0 1.5119 0 3681.6267)" gradientUnits="userSpaceOnUse">
		<stop  offset="0" style="stop-color:#000000"/>
		<stop  offset="0.3489" style="stop-color:#010203"/>
		<stop  offset="0.5888" style="stop-color:#02080C"/>
		<stop  offset="0.7952" style="stop-color:#05131B"/>
		<stop  offset="0.9827" style="stop-color:#0A2131"/>
		<stop  offset="1" style="stop-color:#0A2333"/>
	</radialGradient>
	<path style="fill:url(#SVGID_00000062177322157865396550000013774082046999690670_);" d="M2138.69,616.66
		c-32.39-27.52-131.79-109.68-288.29-115.97c-156.5,6.28-255.9,88.45-288.29,115.97c-32.39,27.52-9.82,104.38,103.72,215.15
		c113.54,110.77,184.57,267.03,184.57,267.03s71.03-156.26,184.57-267.03C2148.51,721.03,2171.08,644.17,2138.69,616.66z"/>
	
		<linearGradient id="SVGID_00000098188281924457409380000003703581968734644126_" gradientUnits="userSpaceOnUse" x1="1865.2991" y1="437.1602" x2="2139.0977" y2="328.5223">
		<stop  offset="0" style="stop-color:#081626"/>
		<stop  offset="0.4" style="stop-color:#273A4D"/>
		<stop  offset="0.4675" style="stop-color:#223547"/>
		<stop  offset="0.7972" style="stop-color:#0F1E2F"/>
		<stop  offset="1" style="stop-color:#081626"/>
	</linearGradient>
	<path style="fill:url(#SVGID_00000098188281924457409380000003703581968734644126_);" d="M1850.4,166.2v323.94
		c0,0,170.97-3.01,294.37,113C2144.77,603.14,2028.8,166.2,1850.4,166.2z"/>
	
		<linearGradient id="SVGID_00000145023537781362307770000011900879162584944567_" gradientUnits="userSpaceOnUse" x1="8154.502" y1="437.1601" x2="8428.2998" y2="328.5226" gradientTransform="matrix(-1 0 0 1 9990 0)">
		<stop  offset="0" style="stop-color:#081626"/>
		<stop  offset="0.4" style="stop-color:#273A4D"/>
		<stop  offset="0.4675" style="stop-color:#223547"/>
		<stop  offset="0.7972" style="stop-color:#0F1E2F"/>
		<stop  offset="1" style="stop-color:#081626"/>
	</linearGradient>
	<path style="fill:url(#SVGID_00000145023537781362307770000011900879162584944567_);" d="M1850.4,166.2v323.94
		c0,0-170.97-3.01-294.37,113C1556.03,603.14,1671.99,166.2,1850.4,166.2z"/>
	<rect x="1848.87" y="166.3" width="3.06" height="334.38"/>
	
		<linearGradient id="SVGID_00000002370512680395380890000006871300188262414254_" gradientUnits="userSpaceOnUse" x1="1850.3988" y1="1207.3193" x2="1850.3988" y2="482.6074">
		<stop  offset="0" style="stop-color:#0A101A"/>
		<stop  offset="0.2774" style="stop-color:#121923"/>
		<stop  offset="0.7283" style="stop-color:#26303B"/>
		<stop  offset="1" style="stop-color:#35414D"/>
	</linearGradient>
	<path style="fill:url(#SVGID_00000002370512680395380890000006871300188262414254_);" d="M2144.77,603.14
		c-118.94-114.51-294.37-120.53-294.37-120.53s-175.43,6.03-294.37,120.53c-118.94,114.51,294.37,358.59,294.37,604.18
		C1850.4,961.73,2263.7,717.65,2144.77,603.14z M2030.29,835.17c-124.88,106.97-179.89,263.67-179.89,263.67
		s-55.01-156.69-179.89-263.67c0,0-156.1-158.2-101.1-212.44c55.01-54.24,145.7-100.95,280.99-114.51
		c135.29,13.56,225.98,60.27,280.99,114.51C2186.39,676.97,2030.29,835.17,2030.29,835.17z"/>
	
		<linearGradient id="SVGID_00000027572713529720419970000007834011400896735416_" gradientUnits="userSpaceOnUse" x1="1171.6582" y1="1349.2539" x2="1171.6582" y2="822.8127">
		<stop  offset="0" style="stop-color:#05090D"/>
		<stop  offset="0.3445" style="stop-color:#091016"/>
		<stop  offset="0.9047" style="stop-color:#12212E"/>
		<stop  offset="1" style="stop-color:#142533"/>
	</linearGradient>
	<path style="fill:url(#SVGID_00000027572713529720419970000007834011400896735416_);" d="M1234.15,853.85
		c-118.2,47.47-156.12,56.51-156.12,56.51v254.61c-81.28-8.89-131.68-110.89-131.68-110.89c0,111.96,43.79,248.03,80.42,274.71
		c28.42,20.7,64.91,25.89,98.11,14.67c21.05-7.12,56.03-26.26,70.53-47.25c0,0,21.51-48.58,49.28-66.66
		c26.5-17.26,89.24,10.06,131.61,50.74c38.22-179.6,11.74-457.48,11.74-457.48S1324.05,823.94,1234.15,853.85z"/>
	<ellipse class="st11" cx="1066.76" cy="1032.99" rx="128.64" ry="151.79"/>
	
		<radialGradient id="SVGID_00000089574332672539752800000012660535258974951068_" cx="1067.8799" cy="400.7852" r="128.4673" gradientTransform="matrix(1 0 0 1.0954 0 588.6978)" gradientUnits="userSpaceOnUse">
		<stop  offset="0" style="stop-color:#000000"/>
		<stop  offset="0.4512" style="stop-color:#000202"/>
		<stop  offset="0.6871" style="stop-color:#02070A"/>
		<stop  offset="0.8725" style="stop-color:#041018"/>
		<stop  offset="1" style="stop-color:#071A26"/>
	</radialGradient>
	
		<ellipse style="fill:url(#SVGID_00000089574332672539752800000012660535258974951068_);" cx="1066.76" cy="1027.72" rx="120.42" ry="137.85"/>
	<g>
		<path class="st11" d="M1203.88,1172.46c13.85-67.08,31.65-213.8-56.38-285.18l24.15-9c0,0,97.82,99.12,35.76,295.1
			C1206.72,1175.58,1203.41,1174.72,1203.88,1172.46z"/>
		<path class="st11" d="M1195.4,1296.21c0,0,50.01-98.55,60.26-190.74c0.13-1.14,1.81-1.05,1.81,0.09
			c0.07,31.5-1.38,93.11-12.79,123.98L1195.4,1296.21z"/>
		<path class="st11" d="M985.14,1216.95c0,0,23.51,56.71,81.62,90.4c0,0,4.6,24.48-40,19.02c0,0,60.14,33.25,98.11,14.67
			c37.97-18.58,22.63-96.97,22.63-96.97s-26.98-47.84-8.7-87.73c0,0-64.62,61.43-144.08,0c0,0,16.89,44.04,72.04,69.65
			c0,0-36.89,4.45-74.19-37.29c0,0,27.17,46.33,75.28,73.45C1067.85,1262.15,1046.09,1266.67,985.14,1216.95z"/>
		<path class="st11" d="M1287.06,1226.91c0,0,39.78-98.94,40.02-224.07c0.01-2.71,3.96-2.98,4.32-0.29
			c7.78,58.37,19.19,183.64-4.33,241.34C1327.07,1243.88,1313.74,1236.61,1287.06,1226.91z"/>
		<path class="st11" d="M1257.47,846.54c0,0,34.73,78.31,26.6,205.24c-0.11,1.8,2.5,2.15,2.84,0.38
			c6.71-34.78,16.81-113.22-1.61-213.18C1285.31,838.98,1270.01,840.21,1257.47,846.54z"/>
		<path class="st11" d="M2357.59,1357.84c0,0,42.63-4.06,102.95-0.92c1.28,0.07,1.54-1.78,0.29-2.04
			c-30.44-6.52-95.7-24.8-144.46-68.56C2316.37,1286.31,2343.04,1322.68,2357.59,1357.84z"/>
		<path class="st11" d="M2278.5,1032.99c0,0,67.57,169.07,168.39,228.35c3.39,1.99,2.86,7.04-0.89,8.24
			c-24.12,7.78-90.57,22.31-157.02-24.59C2288.98,1244.99,2267.17,1143.54,2278.5,1032.99z"/>
		<path class="st11" d="M2312.76,844.96c0,0,50.58,251.31,236.4,436.41C2549.16,1281.37,2498.6,1025.01,2312.76,844.96z"/>
		<path class="st13" d="M1850.4,490.14c-81.74,0-157.67,36.63-188.06,53.34c-1.28,0.71-0.37,2.65,0.99,2.12
			c110.75-43.08,185.63-41.31,187.05-41.27c0.02,0,0.02,0,0.04,0c1.42-0.04,76.3-1.81,187.05,41.27c1.37,0.53,2.28-1.42,0.99-2.12
			C2008.07,526.77,1932.14,490.14,1850.4,490.14z"/>
		<path class="st14" d="M1706.7,889.41c22.98,20.73,82.66,80.62,113.98,168.47c0.48,1.36-1.39,2.27-2.15,1.05
			c-16.82-27.26-68.43-109.6-113.58-167.9C1704.06,889.88,1705.62,888.43,1706.7,889.41z"/>
		<path class="st14" d="M1994.1,889.41c-22.98,20.73-82.66,80.62-113.98,168.47c-0.48,1.36,1.39,2.27,2.15,1.05
			c16.82-27.26,68.43-109.6,113.58-167.9C1996.74,889.88,1995.18,888.43,1994.1,889.41z"/>
		<path class="st14" d="M1850.4,1516.76L1850.4,1516.76c-2.91,0-5.27-2.36-5.27-5.27v-365.4c0-2.91,2.36-5.27,5.27-5.27l0,0
			c2.91,0,5.27,2.36,5.27,5.27v365.4C1855.67,1514.4,1853.31,1516.76,1850.4,1516.76z"/>
		<path class="st15" d="M1607.28,577.38c-0.75-1.5-2.61-2.07-4.07-1.25c-11.84,6.66-58.68,32.55-63.97,66.41
			c-4.52,28.92,26.66,80.06,42.83,104.23c0.65,0.97,2.14,0.09,1.6-0.95c-13.5-26.05-39.26-80.61-31.09-103.28
			c9.59-26.65,45.42-54.62,53.94-61.57C1607.58,580.1,1607.9,578.61,1607.28,577.38L1607.28,577.38z"/>
		<path class="st15" d="M2093.51,577.38c0.75-1.5,2.61-2.07,4.07-1.25c11.84,6.66,58.68,32.55,63.97,66.41
			c4.52,28.92-26.66,80.06-42.83,104.23c-0.65,0.97-2.14,0.09-1.6-0.95c13.5-26.05,39.25-80.61,31.09-103.28
			c-9.59-26.65-45.42-54.62-53.94-61.57C2093.21,580.1,2092.9,578.61,2093.51,577.38L2093.51,577.38z"/>
		<path class="st11" d="M2312.73,845.01c0,0-100.63,173.37-83.65,373.41s-94.57,283.7-174.58,283.7
			c-80.02,0-178.68-63.86-192.39-191.96l-0.38,219.85h377.05c0,0-6.06-143.06,49.71-284.91
			C2288.49,1245.09,2260.6,1013.53,2312.73,845.01z"/>
		<path class="st11" d="M1387.69,823.19c0,0,101,195.19,84.03,395.23c-16.97,200.04,94.57,283.7,174.58,283.7
			c80.02,0,178.68-63.86,192.39-191.96l0.38,219.85h-377.05c0,0,9.33-139.42-86.45-249.75
			C1375.57,1280.25,1418,1032.93,1387.69,823.19z"/>
		<path class="st11" d="M2426.18,1299.53c21.58,4.23,73.58,11.6,125.46-2.31c0,0,3.72,19.44,20.62,35.79
			c0,0-85.66,3.82-147.23-30.26C2423.29,1301.8,2424.24,1299.15,2426.18,1299.53z"/>
		<path class="st11" d="M1661.17,910.64c-1.64-2.51,1.76-5.23,3.85-3.08c36.74,37.87,119.87,131.62,150.64,233.26
			c32.38,106.94-17.82,217.85-38.15,256.27c-1.33,2.51-5.15,1.17-4.62-1.62c7.28-38.18,22.39-140.43,0.34-244.95
			C1754.04,1059.61,1689.83,954.42,1661.17,910.64z"/>
		<path class="st11" d="M1571.79,870.46c30.18,26.98,99.67,97.55,127.57,196.7c1.31,4.65-4.71,7.76-7.75,4.01
			c-27.01-33.3-91.18-116.38-126.84-195.55C1562.78,871.23,1568.2,867.25,1571.79,870.46z"/>
		<path class="st11" d="M1528.17,938.78c29.6,29.4,105.26,113.43,124.97,221.2c0.8,4.39-4.83,6.91-7.57,3.38
			c-25.41-32.76-92.46-124.59-124.44-220.17C1519.7,938.91,1524.97,935.6,1528.17,938.78z"/>
		<path class="st11" d="M1542.3,1095.33c32.85,33.01,116.82,127.36,138.7,248.36c0.89,4.93-5.37,7.76-8.4,3.8
			c-28.2-36.78-102.61-139.89-138.1-247.2C1532.91,1095.48,1538.76,1091.76,1542.3,1095.33z"/>
		<path class="st11" d="M1530.75,1202.44c12.26,41.31,49.53,145.41,131.48,222.41c1.8,1.7-0.23,4.59-2.43,3.44
			c-33.94-17.7-124.34-78.32-133.23-225.11C1526.43,1200.66,1530.03,1200.01,1530.75,1202.44z"/>
		<path class="st11" d="M2039.63,910.64c1.64-2.51-1.76-5.23-3.85-3.08c-36.74,37.87-119.87,131.62-150.64,233.26
			c-32.38,106.94,17.82,217.85,38.15,256.27c1.33,2.51,5.15,1.17,4.62-1.62c-7.28-38.18-22.39-140.43-0.34-244.95
			C1946.75,1059.61,2010.96,954.42,2039.63,910.64z"/>
		<path class="st11" d="M2129.01,870.46c-30.18,26.98-99.67,97.55-127.57,196.7c-1.31,4.65,4.71,7.76,7.75,4.01
			c27.01-33.3,91.18-116.38,126.84-195.55C2138.01,871.23,2132.59,867.25,2129.01,870.46z"/>
		<path class="st11" d="M2172.63,938.78c-29.6,29.4-105.26,113.43-124.97,221.2c-0.8,4.39,4.83,6.91,7.57,3.38
			c25.41-32.76,92.46-124.59,124.44-220.17C2181.09,938.91,2175.83,935.6,2172.63,938.78z"/>
		<path class="st11" d="M2158.49,1095.33c-32.85,33.01-116.82,127.36-138.7,248.36c-0.89,4.93,5.37,7.76,8.4,3.8
			c28.2-36.78,102.61-139.89,138.1-247.2C2167.89,1095.48,2162.04,1091.76,2158.49,1095.33z"/>
		<path class="st11" d="M2170.04,1202.44c-12.26,41.31-49.53,145.41-131.48,222.41c-1.8,1.7,0.23,4.59,2.43,3.44
			c33.94-17.7,124.34-78.32,133.23-225.11C2174.37,1200.66,2170.76,1200.01,2170.04,1202.44z"/>
	</g>
	<g>
		<path d="M1163.82,602.42c0,0,21.18-4.52,21.18,50.85v53.89c0,13.8-0.29,27.53-3.79,40.87c-9.34,35.63-20.35,101.37-14.75,149.61
			c4.58,39.42,0.76,44.85,19.29,49.48c15.14,3.78,30.98,3.63,46.09-0.24c29.4-7.51,84.26-15.05,100.33,27.29
			c0,0,3.34,20.34-13.38,20.34c-16.72,0-28.99,0-28.99,0s-64.67,0-104.81,35.03c-40.14,35.03-64.67,47.46-127.11,40.68
			c0,0-17.84-5.49-42.37,1.78c-24.53,7.26-54.63,4.87-63.55-15.4c-8.92-20.27-50.17-91.46-33.45-210.1c0,0-13.38-31.64,17.84-46.33
			c0,0,25.64-5.65,34.56,5.65c0,0,8.92,18.08,12.26,0c0,0-2.23-18.08,20.07-28.25c0,0,26.76-7.91,34.56,12.43
			c7.8,20.34,14.49-13.56,14.49-13.56s6.69-19.21,24.53-19.21c17.84,0,26.76-4.52,32.33,15.82c5.58,20.34,14.33-2.26,14.33-2.26
			l10.2-58.76C1133.71,712.03,1129.25,596.77,1163.82,602.42z"/>
		
			<linearGradient id="SVGID_00000147180846525901665640000007788400837802679992_" gradientUnits="userSpaceOnUse" x1="908.7281" y1="961.0224" x2="1000.2827" y2="961.0224">
			<stop  offset="0" style="stop-color:#B3DAFF"/>
			<stop  offset="1" style="stop-color:#05101A"/>
		</linearGradient>
		<path style="fill:url(#SVGID_00000147180846525901665640000007788400837802679992_);" d="M985.14,1075.55
			c0,0-14.87-8.35-10.41-26.43c4.46-18.08-14.87-21.4-14.87-21.4s-7.43-17.77,0-41.88c0,0-34.56-55.75-21.74-88.89l-19.6-50.45
			c0,0-21.47,94.21,29.02,200.65C947.54,1047.14,952.43,1069.84,985.14,1075.55z"/>
		
			<linearGradient id="SVGID_00000085248263292746474530000011038597584655691412_" gradientUnits="userSpaceOnUse" x1="911.5562" y1="822.3965" x2="982.6947" y2="822.3965">
			<stop  offset="0" style="stop-color:#B3DAFF"/>
			<stop  offset="1" style="stop-color:#05101A"/>
		</linearGradient>
		<path style="fill:url(#SVGID_00000085248263292746474530000011038597584655691412_);" d="M918.52,846.49
			c0,0,9.95-40.65,52.4-40.68c0,0-9.56-12.03-34.56-5.65C911.36,806.54,914.16,838.98,918.52,846.49z"/>
		
			<linearGradient id="SVGID_00000178167834285703417430000012703818966263819455_" gradientUnits="userSpaceOnUse" x1="979.5323" y1="790.003" x2="1038.1168" y2="790.003">
			<stop  offset="0" style="stop-color:#B3DAFF"/>
			<stop  offset="1" style="stop-color:#05101A"/>
		</linearGradient>
		<path style="fill:url(#SVGID_00000178167834285703417430000012703818966263819455_);" d="M983.13,804.27
			c0,0,20.19-27.8,45.29-25.2c0,0-10.39-6.38-25.16-1.51C988.48,782.44,981.5,796.35,983.13,804.27z"/>
		
			<linearGradient id="SVGID_00000123423422466756572150000000998398420610881464_" gradientUnits="userSpaceOnUse" x1="1047.0288" y1="769.8696" x2="1111.2151" y2="769.8696">
			<stop  offset="0" style="stop-color:#B3DAFF"/>
			<stop  offset="1" style="stop-color:#05101A"/>
		</linearGradient>
		<path style="fill:url(#SVGID_00000123423422466756572150000000998398420610881464_);" d="M1050.72,783.02
			c0,0,30.05-25.4,49.88-24.29c0,0-3.34-2.54-10.9-1.92c-6.99,0.28-12.85,0.41-12.85,0.41S1056.21,756.11,1050.72,783.02z"/>
		
			<linearGradient id="SVGID_00000159453701018326527240000005464397882706301095_" gradientUnits="userSpaceOnUse" x1="1116.8185" y1="689.0231" x2="1191.8118" y2="689.0231">
			<stop  offset="0" style="stop-color:#B3DAFF"/>
			<stop  offset="1" style="stop-color:#05101A"/>
		</linearGradient>
		<path style="fill:url(#SVGID_00000159453701018326527240000005464397882706301095_);" d="M1179.41,615.25c0,0-28-4.87-28.84,15.47
			c-0.84,20.34-9.19,57.63,0,81.36c0,0-18.68,30.52-13.11,44.64c5.58,14.12-16.33,19.02-16.33,19.02s12.74-45.98,12.59-63.71
			c-0.16-17.72-2.7-113.34,30.11-109.6C1163.82,602.42,1172.97,600.23,1179.41,615.25z"/>
		
			<linearGradient id="SVGID_00000183224587686728183790000006112242724361902721_" gradientUnits="userSpaceOnUse" x1="1229.6926" y1="957.1476" x2="1352.488" y2="957.1476">
			<stop  offset="0" style="stop-color:#B3DAFF"/>
			<stop  offset="1" style="stop-color:#05101A"/>
		</linearGradient>
		<path style="fill:url(#SVGID_00000183224587686728183790000006112242724361902721_);" d="M1236.75,945.69
			c0,0,58.16,4.02,95.43,28.48C1332.18,974.18,1316.64,923.63,1236.75,945.69z"/>
	</g>
	<g>
		<path class="st22" d="M1985.22,596.47H1875.3c-4.07,0-7.54,1.91-9.47,4.69h-31.25c-1.93-2.78-5.39-4.69-9.47-4.69H1715.2
			c-6.12,0-11.08,4.35-11.08,9.73v32.68c0,5.37,4.96,9.73,11.08,9.73h102.32c5.27,0,9.81-3.25,10.86-7.78l7.59-32.65h28.48
			l7.59,32.65c1.05,4.53,5.59,7.78,10.86,7.78h102.32c6.12,0,11.08-4.35,11.08-9.73V606.2
			C1996.3,600.83,1991.34,596.47,1985.22,596.47z"/>
		<path class="st23" d="M1829.47,604.41c-0.93-1.18-2.56-1.88-4.35-1.88h-50.84l-14.27,40.01h57.51c2.41,0,4.54-1.33,4.95-3.09
			l7.6-32.68C1830.27,605.95,1830.06,605.16,1829.47,604.41z"/>
		<path class="st23" d="M1985.22,602.53h-45.6l-16.88,40.01h62.48c2.72,0,5.02-1.68,5.02-3.66V606.2
			C1990.24,604.21,1987.94,602.53,1985.22,602.53z"/>
		<g>
			<polygon class="st24" points="1782.45,604.96 1770.33,640.12 1782.45,640.12 1793.36,604.96 			"/>
			<polygon class="st24" points="1948.55,604.96 1934,640.12 1946.12,640.12 1959.46,604.96 			"/>
		</g>
	</g>
</g>
</svg>
