<!-- icon666.com - MILLIONS vector ICONS FREE --><svg id="Layer_1" enable-background="new 0 0 510 510" viewBox="0 0 510 510" xmlns="http://www.w3.org/2000/svg"><path d="m510 45.987v-30h-375c-61.483-.316-96.981 71.58-59.959 120h-75.041v30h30v90h-30v30h74.993c-37.035 48.691-1.306 120.306 60.007 120h135v88.027l60-40 60 40v-88.027h120v-30h-30v-90h30v-30h-75.041c20.053-26.651 20.075-63.32 0-90h75.041v-30h-30v-90h30zm-150 391.973-30-20-30 20v-91.973h60zm90-61.973h-60v-60h-120v60h-135c-59.651-2.4-59.708-87.642 0-90h315zm-30-165c0 24.814-20.186 45-45 45-29.58 0-274.781 0-315 0v-90h315c24.814 0 45 20.186 45 45zm30-75c-40.138 0-285.469 0-315 0-59.713-2.478-59.667-87.544 0-90h315z" fill="#000000" style="fill: rgb(253, 252, 252);"></path></svg>