<!-- icon666.com - MILLIONS vector ICONS FREE --><svg id="Layer_3" enable-background="new 0 0 32 32" viewBox="0 0 32 32" xmlns="http://www.w3.org/2000/svg"><g><path d="m25 10.08301h-18c-1.6543 0-3 1.3457-3 3v8.21436c0 1.6543 1.3457 3 3 3h18c1.6543 0 3-1.3457 3-3v-8.21436c0-1.6543-1.3457-3-3-3zm1 11.21435c0 .55127-.44824 1-1 1h-18c-.55127 0-1-.44873-1-1v-8.21436c0-.55127.44873-1 1-1h18c.55176 0 1 .44873 1 1z" fill="#000000" style="fill: rgb(255, 255, 255);"></path><path d="m19.41895 15.89014-4.00439-2.31201c-.46191-.2666-1.0376-.26709-1.49951.00049-.46289.26709-.75.76465-.75 1.29883v4.625c0 .53418.28711 1.03174.75 1.29883.23096.13379.49072.20068.75.20068s.51855-.06689.75-.2002l4.00391-2.31201c.46387-.26709.75195-.76514.75195-1.2998s-.2881-1.03272-.75196-1.29981zm-4.25391 2.74609v-2.89258l2.50488 1.44629z" fill="#000000" style="fill: rgb(255, 255, 255);"></path><path d="m25.65039 27.1001h-1.93848c-.40936-1.10565-1.46527-1.8999-2.71191-1.8999s-2.30249.79425-2.71185 1.8999h-11.93805c-.55225 0-1 .44775-1 1s.44775 1 1 1h11.93805c.40936 1.10565 1.46521 1.8999 2.71185 1.8999s2.30255-.79425 2.71191-1.8999h1.93848c.55273 0 1-.44775 1-1s-.44726-1-1-1zm-4.65039 1.8999c-.49609 0-.90039-.40381-.90039-.8999s.4043-.8999.90039-.8999.90039.40381.90039.8999-.4043.8999-.90039.8999z" fill="#000000" style="fill: rgb(255, 255, 255);"></path><path d="m14.26025 6.83154c-.39014.39111-.39014 1.02393.00049 1.41455.39063.38965 1.02393.39014 1.41455-.00049.11377-.11425.25244-.13134.32471-.13134s.21094.01709.32471.13135c.19531.19531.45166.29297.70752.29297s.51172-.09766.70703-.29248c.39063-.39063.39063-1.02344 0-1.41455-.92383-.92481-2.5542-.92481-3.47901-.00001z" fill="#000000" style="fill: rgb(255, 255, 255);"></path><path d="m18.83594 6.73535c.25586 0 .51172-.09766.70703-.29297.39063-.39063.39063-1.02393 0-1.41406-1.95313-1.95264-5.13184-1.95361-7.08545 0-.39063.39063-.39063 1.02344 0 1.41406s1.02344.39063 1.41406 0c1.17383-1.17383 3.0835-1.17285 4.25732 0 .19532.19532.45118.29297.70704.29297z" fill="#000000" style="fill: rgb(255, 255, 255);"></path><path d="m12.06152 4.63232c1.05225-1.05273 2.45118-1.63232 3.93848-1.63232s2.88574.57959 3.93848 1.63232c.19531.19531.45117.29297.70703.29297s.51172-.09766.70703-.29297c.39063-.39014.39063-1.02344 0-1.41406-1.42969-1.43017-3.33106-2.21826-5.35254-2.21826s-3.92236.78809-5.35254 2.21826c-.39063.39063-.39063 1.02393 0 1.41406.39063.39063 1.02344.39063 1.41406 0z" fill="#000000" style="fill: rgb(255, 255, 255);"></path></g></svg>